<svg version="1.2" xmlns="http://www.w3.org/2000/svg" viewBox="0 -1 750 501" width="750" height="501">
	<title>3339150</title>
	<style>
		.s0 { fill: #e0e0e0 } 
		.s1 { fill: #ebebeb } 
		.s2 { fill: #f5f5f5 } 
		.s3 { fill: #263238 } 
		.s4 { fill: #e8505b } 
		.s5 { fill: #455a64 } 
		.s6 { fill: #b78876 } 
		.s7 { fill: #aa6550 } 
		.s8 { fill: #fafafa } 
		.s9 { fill: #000000 } 
	</style>
	<g id="Background Complete">
		<g id="&lt;Group&gt;">
			<g id="&lt;Group&gt;">
				<g id="&lt;Group&gt;">
					<path id="&lt;Path&gt;" class="s0" d="m285 169.5c0 0.2-0.6 0.3-1.2 0.2-0.7 0-1.3-0.1-1.3-0.3 0-0.1 0.6-0.2 1.3-0.2 0.7 0 1.2 0.2 1.2 0.3z"/>
				</g>
			</g>
			<g id="&lt;Group&gt;">
				<g id="&lt;Group&gt;">
					<path id="&lt;Path&gt;" class="s0" d="m295 170c0 0.2-1.1 0.2-2.5 0.1-1.4 0-2.5-0.2-2.5-0.4 0-0.1 1.1-0.2 2.5-0.1 1.4 0.1 2.5 0.3 2.5 0.4z"/>
				</g>
			</g>
			<g id="&lt;Group&gt;">
				<g id="&lt;Group&gt;">
					<path id="&lt;Path&gt;" class="s0" d="m305 170.9c0 0.2-1.2 0.2-2.5 0-1.4-0.1-2.5-0.3-2.5-0.5 0-0.1 1.1-0.1 2.5 0 1.4 0.1 2.5 0.4 2.5 0.5z"/>
				</g>
			</g>
			<g id="&lt;Group&gt;">
				<g id="&lt;Group&gt;">
					<path id="&lt;Path&gt;" class="s0" d="m314.9 172.1c0 0.2-1.1 0.1-2.5 0-1.4-0.2-2.5-0.5-2.4-0.6 0-0.2 1.1-0.1 2.5 0 1.4 0.2 2.5 0.5 2.4 0.6z"/>
				</g>
			</g>
			<g id="&lt;Group&gt;">
				<g id="&lt;Group&gt;">
					<path id="&lt;Path&gt;" class="s0" d="m324.8 173.7c0 0.1-1.1 0.1-2.5-0.2-1.4-0.2-2.4-0.5-2.4-0.6 0-0.2 1.1-0.1 2.5 0.1 1.4 0.2 2.4 0.5 2.4 0.7z"/>
				</g>
			</g>
			<g id="&lt;Group&gt;">
				<g id="&lt;Group&gt;">
					<path id="&lt;Path&gt;" class="s0" d="m334.7 175.6c-0.1 0.1-1.2 0-2.5-0.3-1.4-0.2-2.5-0.6-2.5-0.7 0.1-0.2 1.2 0 2.6 0.2 1.3 0.3 2.4 0.6 2.4 0.8z"/>
				</g>
			</g>
			<g id="&lt;Group&gt;">
				<g id="&lt;Group&gt;">
					<path id="&lt;Path&gt;" class="s0" d="m344.4 177.8c0 0.1-1.1 0-2.5-0.3-1.3-0.3-2.4-0.7-2.4-0.9 0.1-0.1 1.2 0.1 2.5 0.4 1.4 0.3 2.5 0.7 2.4 0.8z"/>
				</g>
			</g>
			<g id="&lt;Group&gt;">
				<g id="&lt;Group&gt;">
					<path id="&lt;Path&gt;" class="s0" d="m354.1 180.4c0 0.1-1.1-0.1-2.5-0.4-1.3-0.4-2.4-0.8-2.3-1 0-0.1 1.1 0.1 2.5 0.4 1.3 0.4 2.3 0.8 2.3 1z"/>
				</g>
			</g>
			<g id="&lt;Group&gt;">
				<g id="&lt;Group&gt;">
					<path id="&lt;Path&gt;" class="s0" d="m363.7 183.2c0 0.2-1.2 0-2.5-0.5-1.3-0.4-2.3-0.8-2.3-0.9 0.1-0.2 1.2 0 2.5 0.4 1.3 0.5 2.3 0.9 2.3 1z"/>
				</g>
			</g>
			<g id="&lt;Group&gt;">
				<g id="&lt;Group&gt;">
					<path id="&lt;Path&gt;" class="s0" d="m373.2 186.4c-0.1 0.2-1.2-0.1-2.5-0.5-1.3-0.5-2.3-1-2.2-1.1 0-0.1 1.1 0.1 2.4 0.6 1.3 0.4 2.3 0.9 2.3 1z"/>
				</g>
			</g>
			<g id="&lt;Group&gt;">
				<g id="&lt;Group&gt;">
					<path id="&lt;Path&gt;" class="s0" d="m382.6 189.9c-0.1 0.2-1.2-0.1-2.5-0.6-1.3-0.5-2.3-1-2.2-1.2 0-0.1 1.1 0.2 2.4 0.7 1.3 0.5 2.3 1 2.3 1.1z"/>
				</g>
			</g>
			<g id="&lt;Group&gt;">
				<g id="&lt;Group&gt;">
					<path id="&lt;Path&gt;" class="s0" d="m391.8 193.7c0 0.2-1.1-0.2-2.4-0.7-1.3-0.5-2.2-1.1-2.2-1.2 0.1-0.1 1.1 0.2 2.4 0.7 1.3 0.5 2.3 1.1 2.2 1.2z"/>
				</g>
			</g>
			<g id="&lt;Group&gt;">
				<g id="&lt;Group&gt;">
					<path id="&lt;Path&gt;" class="s0" d="m401 197.8c-0.1 0.1-1.2-0.2-2.4-0.8-1.3-0.6-2.2-1.1-2.2-1.3 0.1-0.1 1.1 0.3 2.4 0.8 1.3 0.6 2.2 1.2 2.2 1.3z"/>
				</g>
			</g>
			<g id="&lt;Group&gt;">
				<g id="&lt;Group&gt;">
					<path id="&lt;Path&gt;" class="s0" d="m410 202.2c-0.1 0.1-1.1-0.3-2.4-0.9-1.2-0.6-2.2-1.2-2.1-1.3 0.1-0.2 1.1 0.2 2.4 0.8 1.2 0.6 2.1 1.2 2.1 1.4z"/>
				</g>
			</g>
			<g id="&lt;Group&gt;">
				<g id="&lt;Group&gt;">
					<path id="&lt;Path&gt;" class="s0" d="m418.9 206.8c-0.1 0.1-1.2-0.3-2.4-0.9-1.2-0.7-2.1-1.3-2.1-1.5 0.1-0.1 1.2 0.3 2.4 1 1.2 0.6 2.1 1.3 2.1 1.4z"/>
				</g>
			</g>
			<g id="&lt;Group&gt;">
				<g id="&lt;Group&gt;">
					<path id="&lt;Path&gt;" class="s0" d="m427.6 211.7c-0.1 0.1-1.1-0.3-2.3-1-1.2-0.7-2.1-1.4-2.1-1.5 0.1-0.1 1.2 0.3 2.4 1 1.2 0.7 2.1 1.4 2 1.5z"/>
				</g>
			</g>
			<g id="&lt;Group&gt;">
				<g id="&lt;Group&gt;">
					<path id="&lt;Path&gt;" class="s0" d="m436.2 216.8c-0.1 0.1-1.1-0.3-2.3-1.1-1.2-0.7-2.1-1.4-2-1.5 0.1-0.1 1.1 0.4 2.3 1.1 1.2 0.7 2.1 1.4 2 1.5z"/>
				</g>
			</g>
			<g id="&lt;Group&gt;">
				<g id="&lt;Group&gt;">
					<path id="&lt;Path&gt;" class="s0" d="m444.6 222.2c0 0.1-1-0.4-2.2-1.2-1.2-0.7-2-1.4-2-1.5 0.1-0.2 1.1 0.4 2.3 1.1 1.1 0.8 2 1.5 1.9 1.6z"/>
				</g>
			</g>
			<g id="&lt;Group&gt;">
				<g id="&lt;Group&gt;">
					<path id="&lt;Path&gt;" class="s0" d="m453 227.8c-0.1 0.1-1.1-0.4-2.3-1.2-1.1-0.8-2-1.5-1.9-1.6 0.1-0.2 1.1 0.4 2.2 1.1 1.2 0.8 2 1.6 2 1.7z"/>
				</g>
			</g>
			<g id="&lt;Group&gt;">
				<g id="&lt;Group&gt;">
					<path id="&lt;Path&gt;" class="s0" d="m461.1 233.6c-0.1 0.1-1.1-0.5-2.2-1.3-1.1-0.8-1.9-1.5-1.9-1.6 0.1-0.2 1.1 0.4 2.2 1.2 1.2 0.8 2 1.6 1.9 1.7z"/>
				</g>
			</g>
			<g id="&lt;Group&gt;">
				<g id="&lt;Group&gt;">
					<path id="&lt;Path&gt;" class="s0" d="m469.1 239.6c-0.1 0.1-1-0.5-2.1-1.3-1.1-0.8-2-1.6-1.9-1.7 0.1-0.1 1.1 0.4 2.2 1.3 1.1 0.8 1.9 1.6 1.8 1.7z"/>
				</g>
			</g>
			<g id="&lt;Group&gt;">
				<g id="&lt;Group&gt;">
					<path id="&lt;Path&gt;" class="s0" d="m477 245.8c-0.1 0.1-1.1-0.5-2.2-1.3-1-0.9-1.8-1.7-1.7-1.8 0-0.1 1 0.5 2.1 1.4 1.1 0.8 1.9 1.6 1.8 1.7z"/>
				</g>
			</g>
			<g id="&lt;Group&gt;">
				<g id="&lt;Group&gt;">
					<path id="&lt;Path&gt;" class="s0" d="m484.7 252.2c-0.1 0.1-1.1-0.5-2.1-1.4-1.1-0.9-1.9-1.7-1.8-1.8 0.1-0.1 1.1 0.5 2.1 1.4 1.1 0.9 1.9 1.7 1.8 1.8z"/>
				</g>
			</g>
			<g id="&lt;Group&gt;">
				<g id="&lt;Group&gt;">
					<path id="&lt;Path&gt;" class="s0" d="m492.2 258.8c-0.1 0.1-1-0.5-2-1.5-1.1-0.9-1.8-1.7-1.7-1.8 0.1-0.1 1 0.5 2 1.5 1 0.9 1.8 1.7 1.7 1.8z"/>
				</g>
			</g>
			<g id="&lt;Group&gt;">
				<g id="&lt;Group&gt;">
					<path id="&lt;Path&gt;" class="s0" d="m499.6 265.6c-0.1 0.1-1-0.6-2-1.6-1-0.9-1.8-1.7-1.7-1.8 0.1-0.1 1 0.5 2 1.5 1.1 0.9 1.8 1.7 1.7 1.9z"/>
				</g>
			</g>
			<g id="&lt;Group&gt;">
				<g id="&lt;Group&gt;">
					<path id="&lt;Path&gt;" class="s0" d="m506.9 272.5c-0.1 0.1-1-0.6-2-1.6-1-0.9-1.7-1.8-1.6-1.9 0.1-0.1 0.9 0.6 1.9 1.5 1 1 1.8 1.9 1.7 2z"/>
				</g>
			</g>
			<g id="&lt;Group&gt;">
				<g id="&lt;Group&gt;">
					<path id="&lt;Path&gt;" class="s0" d="m512.2 277.8c-0.1 0.1-0.6-0.2-1-0.7-0.5-0.5-0.8-1-0.7-1.1 0.1-0.1 0.5 0.2 1 0.7 0.5 0.5 0.8 1 0.7 1.1z"/>
				</g>
			</g>
		</g>
		<g id="&lt;Group&gt;">
			<g id="&lt;Group&gt;">
				<g id="&lt;Group&gt;">
					<path id="&lt;Path&gt;" class="s1" d="m680.9 312.2c0 0-8.1-4.4-15.7 14.9-7.5 19.2-10 30.1-10 30.1 0 0-2.1 4.1-5 1.9-2.9-2.3-7.2-9-11.6-7.3-4.5 1.8-5.5 7.1-3.9 14.6 1.7 7.6 4.7 24.2 4.9 25.7 0.3 1.5-0.4 3.8-2.6 2.6-2.2-1.3-15.4-13.3-20.8-6.7-5.3 6.6 2.7 26.8 3.5 29.1 0.8 2.2 0.5 3.2-0.5 3.9-1.1 0.7-5.1-3.8-9-7.1-3.9-3.3-9-6.4-11.8-2.3-2.8 4-2.2 19.8 15.1 43.7l8.8 10.6 13.6-2.2c28.9-6.2 39.8-17.6 40.4-22.5 0.7-4.9-5.2-6-10.3-6.1-5.1-0.2-11.1 0.5-11.4-0.7-0.4-1.2 0.1-2.2 2.2-3.3 2.1-1.1 21.5-10.9 21.9-19.4 0.4-8.5-17.5-8.3-19.9-8.8-2.5-0.6-1.5-2.7-0.3-3.6 1.2-1 14.5-11.4 20.8-16 6.2-4.5 9-9.2 6.8-13.5-2.1-4.2-9.8-2-13.5-2.3-3.6-0.2-2.4-4.6-2.4-4.6 0 0 5.4-9.8 12.5-29.2 7.2-19.4-2-21.6-2-21.6"/>
				</g>
			</g>
			<g id="&lt;Group&gt;">
				<g id="&lt;Group&gt;">
					<g id="&lt;Group&gt;">
						<path id="&lt;Path&gt;" class="s0" d="m622.6 462.9c5.4-14.2 12.9-33.8 21.3-55.4 8.4-21.6 16-41.1 21.4-55.3 2.7-7.1 4.9-12.8 6.4-16.8q1.1-3 1.7-4.6 0.3-0.7 0.5-1.2 0.1-0.3 0.1-0.3 0 0-0.1 0.4-0.1 0.4-0.4 1.2-0.6 1.6-1.7 4.6c-1.4 3.9-3.6 9.7-6.2 16.8-5.4 14.2-12.9 33.8-21.3 55.4-8.4 21.6-16 41.1-21.4 55.3"/>
					</g>
				</g>
			</g>
			<g id="&lt;Group&gt;">
				<g id="&lt;Group&gt;">
					<g id="&lt;Group&gt;">
						<path id="&lt;Path&gt;" class="s0" d="m644.2 361.4c0 0 0.2 0.3 0.4 0.9 0.3 0.5 0.6 1.4 1.1 2.5 0.8 2.1 1.9 5 3 8.3 1.1 3.3 2.1 6.2 2.9 8.5q0.5 1.5 0.8 2.5c0.3 0.6 0.4 1 0.3 1 0 0-0.2-0.3-0.4-0.9-0.3-0.6-0.6-1.5-1-2.5-0.8-2.2-1.9-5.1-3-8.4-1.1-3.3-2.1-6.2-2.9-8.4q-0.6-1.6-0.9-2.6c-0.2-0.6-0.3-0.9-0.3-0.9z"/>
					</g>
				</g>
			</g>
			<g id="&lt;Group&gt;">
				<g id="&lt;Group&gt;">
					<g id="&lt;Group&gt;">
						<path id="&lt;Path&gt;" class="s0" d="m654 385.2c0-0.1 6-2.6 13.4-5.6 7.5-2.9 13.6-5.2 13.6-5.1 0.1 0.1-5.9 2.6-13.4 5.5-7.5 3-13.5 5.3-13.6 5.2z"/>
					</g>
				</g>
			</g>
			<g id="&lt;Group&gt;">
				<g id="&lt;Group&gt;">
					<g id="&lt;Group&gt;">
						<path id="&lt;Path&gt;" class="s0" d="m639.6 417.8c0-0.1 0.4-0.1 1-0.2q1.1-0.1 2.8-0.2c2.3-0.3 5.5-0.6 9-1.1 3.5-0.4 6.7-1 9-1.4q1.6-0.3 2.7-0.5c0.6-0.1 1-0.1 1-0.1 0 0-0.3 0.1-1 0.3-0.6 0.1-1.5 0.4-2.7 0.6-2.2 0.5-5.4 1.1-8.9 1.5-3.6 0.5-6.8 0.8-9.1 1-1.2 0-2.1 0.1-2.8 0.1-0.6 0-1 0-1 0z"/>
					</g>
				</g>
			</g>
			<g id="&lt;Group&gt;">
				<g id="&lt;Group&gt;">
					<g id="&lt;Group&gt;">
						<path id="&lt;Path&gt;" class="s0" d="m626 398.2c0-0.1 0.3 0.2 0.6 0.7q0.6 0.8 1.6 2c1.2 1.7 3 4.1 4.9 6.8 1.9 2.7 3.6 5.1 4.8 6.9q0.9 1.2 1.4 2.1c0.4 0.5 0.5 0.8 0.5 0.8 0 0-0.2-0.2-0.6-0.7q-0.6-0.8-1.5-2c-1.3-1.8-3.1-4.2-5-6.8-1.9-2.7-3.6-5.1-4.8-6.9q-0.8-1.3-1.4-2.1c-0.3-0.5-0.5-0.8-0.5-0.8z"/>
					</g>
				</g>
			</g>
			<g id="&lt;Group&gt;">
				<g id="&lt;Group&gt;">
					<g id="&lt;Group&gt;">
						<path id="&lt;Path&gt;" class="s0" d="m609.7 425.3c0 0 0.3 0.3 0.7 0.9q0.8 1 2 2.6c1.7 2.2 3.9 5.3 6.4 8.7 2.5 3.4 4.7 6.5 6.3 8.7q1.1 1.7 1.9 2.7c0.4 0.6 0.6 1 0.6 1 0 0-0.3-0.3-0.8-0.9q-0.8-1-2-2.6c-1.6-2.2-3.9-5.3-6.3-8.7-2.5-3.4-4.7-6.5-6.3-8.7q-1.2-1.6-1.9-2.7c-0.4-0.6-0.7-1-0.6-1z"/>
					</g>
				</g>
			</g>
			<g id="&lt;Group&gt;">
				<g id="&lt;Group&gt;">
					<g id="&lt;Group&gt;">
						<path id="&lt;Path&gt;" class="s0" d="m627.3 449.2c0 0 0.5-0.1 1.3-0.2q1.3-0.2 3.5-0.5c2.9-0.3 6.9-0.9 11.4-1.6 4.4-0.8 8.4-1.5 11.3-2.1q2.1-0.4 3.4-0.7c0.9-0.1 1.3-0.2 1.3-0.2 0 0.1-0.4 0.2-1.2 0.4-0.8 0.2-2 0.5-3.4 0.8-2.9 0.7-6.9 1.5-11.4 2.2-4.4 0.7-8.5 1.2-11.4 1.5-1.5 0.2-2.7 0.3-3.5 0.4-0.8 0-1.3 0-1.3 0z"/>
					</g>
				</g>
			</g>
		</g>
		<g id="&lt;Group&gt;">
			<g id="&lt;Group&gt;">
				<path id="&lt;Path&gt;" class="s2" d="m459 417.5l-1.5-6.1 2.1-2.1 6.4 1.5 7.7 11.2-1.9 2.3z"/>
			</g>
			<g id="&lt;Group&gt;">
				<path id="&lt;Path&gt;" class="s1" d="m519.8 463.5l-63.5-57.2c-0.7-0.6-1.7-0.5-2.3 0.1-0.5 0.6-0.4 1.5 0.2 2.1l63.1 56.8"/>
			</g>
		</g>
		<g id="&lt;Group&gt;">
			<g id="&lt;Group&gt;">
				<g id="&lt;Group&gt;">
					<path id="&lt;Path&gt;" class="s0" d="m119.2 138q0 0 0-0.4 0-0.5-0.1-1.2 0-0.4-0.1-0.9 0-0.5-0.1-1c-0.1-0.8-0.3-1.7-0.5-2.6-0.5-2-1.4-4.3-2.8-6.7-1.5-2.4-3.6-4.9-6.4-7.1-2.8-2.1-6.4-3.9-10.5-4.6-4.1-0.7-8.7-0.6-13.1 1.1-1.1 0.3-2.2 0.9-3.3 1.4-1 0.6-2.1 1.2-3 2-1 0.7-1.9 1.5-2.8 2.4-0.9 0.9-1.8 1.8-2.5 2.9-1.5 2-2.8 4.3-3.5 6.8-0.9 2.5-1.3 5.2-1.3 7.9 0 2.7 0.4 5.3 1.3 7.8 0.7 2.6 2 4.9 3.5 6.9 0.7 1.1 1.6 2 2.5 2.9 0.9 0.8 1.8 1.7 2.8 2.4 0.9 0.8 2 1.4 3 2 1.1 0.5 2.2 1 3.3 1.4 4.4 1.7 9 1.8 13.1 1.1 4.1-0.7 7.7-2.5 10.5-4.7 2.8-2.1 4.9-4.6 6.4-7 1.4-2.5 2.3-4.8 2.8-6.7 0.2-0.9 0.4-1.8 0.5-2.6q0.1-0.6 0.1-1 0.1-0.5 0.1-0.9 0.1-0.8 0.1-1.2 0-0.4 0-0.4 0.1 0 0 0.4 0 0.4 0 1.2 0 0.4 0 0.9-0.1 0.5-0.2 1c-0.1 0.8-0.2 1.7-0.4 2.7-0.5 1.9-1.4 4.2-2.8 6.7-1.4 2.5-3.5 5-6.4 7.2-2.8 2.2-6.5 4.1-10.6 4.8-4.2 0.8-8.9 0.6-13.4-1-1.1-0.4-2.2-1-3.3-1.5-1-0.6-2.1-1.2-3.1-2-1.1-0.7-2-1.6-2.9-2.4-0.9-1-1.8-1.9-2.5-3-1.5-2.1-2.8-4.4-3.6-7-0.9-2.5-1.3-5.3-1.4-8 0.1-2.8 0.5-5.5 1.4-8 0.8-2.6 2.1-4.9 3.6-7 0.7-1.1 1.6-2 2.5-3 0.9-0.8 1.8-1.7 2.9-2.4 1-0.8 2.1-1.4 3.1-2 1.1-0.5 2.2-1.1 3.3-1.5 4.5-1.7 9.2-1.8 13.4-1 4.1 0.7 7.8 2.6 10.6 4.7 2.9 2.2 5 4.8 6.4 7.3 1.4 2.4 2.3 4.8 2.8 6.7 0.2 1 0.3 1.9 0.4 2.6q0.1 0.6 0.2 1.1 0 0.5 0 0.9 0 0.7 0 1.2 0.1 0.4 0 0.4z"/>
				</g>
			</g>
			<g id="&lt;Group&gt;">
				<g id="&lt;Group&gt;">
					<path id="&lt;Path&gt;" class="s0" d="m111.8 138c-0.1 0 0.1-1.6-0.6-4.3-0.3-1.4-1-3-2-4.7-1-1.7-2.5-3.5-4.5-5-2-1.5-4.5-2.7-7.4-3.2-2.9-0.5-6.1-0.4-9.2 0.7-1.5 0.6-3 1.4-4.4 2.4-0.7 0.5-1.4 1.1-2 1.7-0.6 0.7-1.2 1.3-1.7 2-2.2 2.9-3.4 6.6-3.4 10.4 0 3.8 1.2 7.5 3.4 10.3 0.5 0.8 1.1 1.4 1.7 2.1 0.6 0.6 1.3 1.2 2 1.7 1.4 1 2.9 1.8 4.4 2.3 3.1 1.2 6.3 1.3 9.2 0.8 2.9-0.5 5.4-1.8 7.4-3.2 2-1.5 3.5-3.3 4.5-5 1-1.7 1.7-3.3 2-4.7 0.7-2.7 0.5-4.3 0.6-4.3q0 0 0 0.3 0 0.3 0 0.8 0 0.6-0.1 1.4c-0.1 0.5-0.1 1.2-0.3 1.9-0.3 1.3-0.9 3-2 4.7-1 1.8-2.4 3.6-4.5 5.2-2 1.5-4.5 2.8-7.5 3.3-3 0.6-6.3 0.5-9.5-0.7-1.6-0.6-3.1-1.4-4.5-2.4-0.8-0.5-1.4-1.2-2.1-1.8-0.6-0.6-1.2-1.3-1.7-2.1-2.3-2.9-3.5-6.7-3.5-10.6 0-3.9 1.2-7.7 3.5-10.7 0.5-0.7 1.1-1.4 1.7-2 0.7-0.6 1.3-1.3 2.1-1.8 1.4-1 2.9-1.9 4.5-2.4 3.2-1.2 6.5-1.3 9.5-0.8 3 0.6 5.5 1.9 7.5 3.4 2.1 1.6 3.5 3.4 4.5 5.1 1.1 1.8 1.7 3.4 2 4.8 0.2 0.7 0.2 1.3 0.3 1.9q0.1 0.8 0.1 1.4 0 0.5 0 0.8 0 0.3 0 0.3z"/>
				</g>
			</g>
			<g id="&lt;Group&gt;">
				<g id="&lt;Group&gt;">
					<path id="&lt;Path&gt;" class="s0" d="m93.8 125c-0.1 0-0.3-4.8-0.3-10.8 0-6 0.2-10.9 0.3-10.9 0.2 0 0.3 4.9 0.3 10.9 0 6-0.1 10.8-0.3 10.8z"/>
				</g>
			</g>
			<g id="&lt;Group&gt;">
				<g id="&lt;Group&gt;">
					<path id="&lt;Path&gt;" class="s0" d="m93.8 169.9c-0.1 0-0.3-4.9-0.3-10.9 0-6 0.2-10.8 0.3-10.8 0.2 0 0.3 4.8 0.3 10.8 0 6-0.1 10.9-0.3 10.9z"/>
				</g>
			</g>
			<g id="&lt;Group&gt;">
				<g id="&lt;Group&gt;">
					<path id="&lt;Path&gt;" class="s0" d="m84.7 138c0 0.1-4.9 0.3-10.8 0.3-6 0-10.9-0.2-10.9-0.3 0-0.2 4.9-0.3 10.9-0.3 5.9 0 10.8 0.1 10.8 0.3z"/>
				</g>
			</g>
			<g id="&lt;Group&gt;">
				<g id="&lt;Group&gt;">
					<path id="&lt;Path&gt;" class="s0" d="m124.6 138c0 0.1-4.8 0.3-10.8 0.3-6 0-10.9-0.2-10.9-0.3 0-0.2 4.9-0.3 10.9-0.3 6 0 10.8 0.1 10.8 0.3z"/>
				</g>
			</g>
			<g id="&lt;Group&gt;">
				<g id="&lt;Group&gt;">
					<path id="&lt;Path&gt;" class="s0" d="m79.2 102.8c0 0.1-0.6 0.1-1.6 0.1q-1.7 0.1-4.3 0.1c-3.7 0.1-8.8 0.1-14.4 0.1q-0.1 0-0.3 0l0.3-0.3c0 5.6-0.1 10.6-0.1 14.2q-0.1 2.6-0.1 4.3c0 1-0.1 1.5-0.1 1.5 0 0-0.1-0.5-0.1-1.5q0-1.7-0.1-4.3c0-3.6 0-8.6-0.1-14.2v-0.2h0.3q0.2 0 0.3 0c5.6 0 10.7 0 14.4 0q2.6 0.1 4.3 0.1c1 0 1.6 0.1 1.6 0.1z"/>
				</g>
			</g>
			<g id="&lt;Group&gt;">
				<g id="&lt;Group&gt;">
					<path id="&lt;Path&gt;" class="s0" d="m58.9 148.7c0 0 0.1 0.6 0.1 1.6q0 1.7 0.1 4.4c0 3.6 0.1 8.7 0.1 14.3q0 0.2 0 0.3l-0.3-0.3c5.5 0 10.5 0.1 14.2 0.1q2.6 0.1 4.2 0.1c1.1 0 1.6 0.1 1.6 0.1 0 0-0.5 0.1-1.6 0.1q-1.6 0-4.2 0.1c-3.7 0-8.7 0.1-14.2 0.1h-0.3v-0.3q0-0.1 0-0.3c0-5.6 0.1-10.7 0.1-14.3q0.1-2.7 0.1-4.4c0-1 0.1-1.6 0.1-1.6z"/>
				</g>
			</g>
			<g id="&lt;Group&gt;">
				<g id="&lt;Group&gt;">
					<path id="&lt;Path&gt;" class="s0" d="m105.9 169.3c0 0 0.6-0.1 1.6-0.1q1.7 0 4.3-0.1c3.7 0 8.8-0.1 14.4-0.1q0.1 0 0.3 0l-0.3 0.3c0-5.5 0.1-10.5 0.1-14.2q0.1-2.6 0.1-4.2c0-1 0.1-1.6 0.1-1.6 0 0 0.1 0.6 0.1 1.6q0 1.6 0.1 4.2c0 3.7 0 8.7 0 14.2v0.3h-0.2q-0.2 0-0.3 0c-5.6 0-10.7-0.1-14.4-0.1q-2.6-0.1-4.3-0.1c-1 0-1.6-0.1-1.6-0.1z"/>
				</g>
			</g>
			<g id="&lt;Group&gt;">
				<g id="&lt;Group&gt;">
					<path id="&lt;Path&gt;" class="s0" d="m126.2 123.4c0 0-0.1-0.6-0.1-1.6q0-1.7-0.1-4.3c0-3.7-0.1-8.8-0.1-14.4q0-0.1 0-0.3l0.3 0.3c-5.5 0-10.5-0.1-14.2-0.1q-2.6 0-4.2-0.1c-1.1 0-1.6 0-1.6-0.1 0 0 0.5 0 1.6-0.1q1.6 0 4.2-0.1c3.7 0 8.7 0 14.2 0h0.3v0.2q0 0.2 0 0.3c0 5.6-0.1 10.7-0.1 14.4q-0.1 2.6-0.1 4.3c0 1-0.1 1.6-0.1 1.6z"/>
				</g>
			</g>
		</g>
		<g id="&lt;Group&gt;">
			<g id="&lt;Group&gt;">
				<g id="&lt;Group&gt;">
					<path id="&lt;Path&gt;" class="s0" d="m598.2 224q0 0 0-0.4 0-0.3-0.1-0.9 0-0.7-0.2-1.6c-0.1-0.6-0.2-1.3-0.4-2.1-0.4-1.6-1.1-3.4-2.3-5.4-1.1-2-2.8-4-5.1-5.7-2.3-1.8-5.2-3.2-8.6-3.8-3.3-0.6-7-0.5-10.6 0.9-0.9 0.3-1.7 0.7-2.6 1.2-0.8 0.5-1.7 0.9-2.5 1.5-0.8 0.6-1.5 1.3-2.3 2-0.6 0.7-1.4 1.5-1.9 2.3-1.2 1.7-2.3 3.6-2.9 5.6-0.7 2-1 4.2-1.1 6.4 0.1 2.1 0.4 4.3 1.1 6.3 0.6 2.1 1.7 3.9 2.9 5.6 0.5 0.8 1.3 1.6 1.9 2.3 0.8 0.7 1.5 1.4 2.3 2 0.8 0.6 1.7 1.1 2.5 1.6 0.9 0.4 1.7 0.8 2.6 1.1 3.6 1.4 7.3 1.5 10.6 0.9 3.4-0.6 6.3-2 8.6-3.7 2.3-1.8 4-3.8 5.1-5.8 1.2-1.9 1.9-3.8 2.3-5.4 0.2-0.8 0.3-1.5 0.4-2.1q0.2-0.9 0.2-1.5 0.1-0.6 0.1-1 0-0.3 0-0.3 0.1 0 0.1 0.3-0.1 0.4-0.1 1 0 0.6-0.1 1.5c-0.1 0.7-0.2 1.4-0.4 2.2-0.3 1.6-1.1 3.5-2.2 5.5-1.2 2-2.9 4.1-5.2 5.8-2.3 1.8-5.3 3.3-8.7 3.9-3.4 0.6-7.2 0.5-10.8-0.8-1-0.3-1.8-0.8-2.7-1.2-0.9-0.5-1.8-1-2.6-1.6-0.8-0.6-1.6-1.3-2.3-2-0.7-0.8-1.5-1.5-2.1-2.4-1.2-1.7-2.3-3.6-2.9-5.7-0.7-2.1-1.1-4.3-1.1-6.5 0-2.3 0.4-4.5 1.1-6.6 0.6-2.1 1.7-4 2.9-5.7 0.7-0.8 1.4-1.6 2.1-2.4 0.7-0.7 1.5-1.4 2.3-2 0.8-0.6 1.7-1.1 2.6-1.6 0.9-0.4 1.7-0.9 2.7-1.2 3.6-1.3 7.4-1.4 10.8-0.8 3.4 0.6 6.4 2.1 8.7 3.9 2.3 1.8 4 3.8 5.2 5.9 1.1 2 1.9 3.8 2.2 5.4 0.2 0.8 0.3 1.6 0.4 2.2q0.1 0.9 0.1 1.6 0 0.6 0.1 0.9 0 0.4-0.1 0.4z"/>
				</g>
			</g>
			<g id="&lt;Group&gt;">
				<g id="&lt;Group&gt;">
					<path id="&lt;Path&gt;" class="s0" d="m592.2 224c-0.1 0 0-1.3-0.5-3.5-0.6-2.2-2-5.4-5.3-7.9-1.6-1.2-3.6-2.2-6-2.6-2.3-0.4-4.9-0.3-7.4 0.6-1.3 0.5-2.5 1.1-3.6 2-1.1 0.8-2.2 1.8-3 3-1.7 2.3-2.7 5.3-2.8 8.4 0.1 3 1.1 6 2.8 8.3 0.8 1.2 1.9 2.2 3 3 1.1 0.9 2.3 1.5 3.6 2 2.5 0.9 5.1 1 7.4 0.6 2.4-0.4 4.4-1.4 6-2.6 3.3-2.5 4.7-5.7 5.3-7.8 0.5-2.3 0.4-3.5 0.5-3.5q0 0 0 0.2 0 0.3 0 0.7 0 0.4-0.1 1.1c0 0.4-0.1 0.9-0.2 1.5-0.3 1.1-0.8 2.5-1.6 3.9-0.8 1.4-2 2.9-3.7 4.2-1.6 1.2-3.7 2.3-6.1 2.7-2.4 0.5-5.1 0.4-7.7-0.6-1.3-0.4-2.5-1.1-3.7-2-1.2-0.8-2.2-1.9-3.1-3.1-1.8-2.4-2.8-5.5-2.9-8.6 0.1-3.2 1.1-6.3 2.9-8.7 0.9-1.2 1.9-2.3 3.1-3.1 1.2-0.9 2.4-1.6 3.7-2 2.6-1 5.3-1 7.7-0.6 2.4 0.4 4.5 1.5 6.1 2.7 1.7 1.3 2.9 2.8 3.7 4.2 0.8 1.4 1.3 2.8 1.6 3.9 0.1 0.6 0.2 1.1 0.2 1.5q0.1 0.7 0.1 1.1 0 0.4 0 0.7 0 0.3 0 0.3z"/>
				</g>
			</g>
			<g id="&lt;Group&gt;">
				<g id="&lt;Group&gt;">
					<path id="&lt;Path&gt;" class="s0" d="m577.6 213.4c-0.2 0-0.3-3.9-0.3-8.8 0-4.8 0.1-8.8 0.3-8.8 0.1 0 0.3 4 0.3 8.8 0 4.9-0.2 8.8-0.3 8.8z"/>
				</g>
			</g>
			<g id="&lt;Group&gt;">
				<g id="&lt;Group&gt;">
					<path id="&lt;Path&gt;" class="s0" d="m577.6 249.8c-0.2 0-0.3-3.9-0.3-8.8 0-4.8 0.1-8.8 0.3-8.8 0.1 0 0.3 4 0.3 8.8 0 4.9-0.2 8.8-0.3 8.8z"/>
				</g>
			</g>
			<g id="&lt;Group&gt;">
				<g id="&lt;Group&gt;">
					<path id="&lt;Path&gt;" class="s0" d="m570.2 224c0 0.1-3.9 0.2-8.8 0.2-4.9 0-8.8-0.1-8.8-0.2 0-0.2 3.9-0.3 8.8-0.3 4.9 0 8.8 0.1 8.8 0.3z"/>
				</g>
			</g>
			<g id="&lt;Group&gt;">
				<g id="&lt;Group&gt;">
					<path id="&lt;Path&gt;" class="s0" d="m602.6 224c0 0.1-3.9 0.2-8.8 0.2-4.9 0-8.8-0.1-8.8-0.2 0-0.2 3.9-0.3 8.8-0.3 4.9 0 8.8 0.1 8.8 0.3z"/>
				</g>
			</g>
			<g id="&lt;Group&gt;">
				<g id="&lt;Group&gt;">
					<path id="&lt;Path&gt;" class="s0" d="m565.7 195.4c0 0-0.4 0.1-1.3 0.1q-1.4 0-3.5 0.1c-3 0-7.1 0.1-11.6 0.1q-0.2 0-0.3 0l0.3-0.3c0 4.5-0.1 8.6-0.1 11.5q-0.1 2.1-0.1 3.5c0 0.8-0.1 1.2-0.1 1.2 0 0-0.1-0.4-0.1-1.2q0-1.4-0.1-3.5c0-2.9 0-7 0-11.5v-0.3h0.2q0.1 0 0.3 0c4.5 0 8.6 0.1 11.6 0.1q2.1 0.1 3.5 0.1c0.9 0 1.3 0.1 1.3 0.1z"/>
				</g>
			</g>
			<g id="&lt;Group&gt;">
				<g id="&lt;Group&gt;">
					<path id="&lt;Path&gt;" class="s0" d="m549.3 232.7c0 0 0 0.4 0.1 1.3q0 1.4 0 3.5c0.1 3 0.1 7.1 0.1 11.6q0 0.2 0 0.3l-0.2-0.3c4.5 0 8.5 0.1 11.5 0.1q2 0.1 3.4 0.1c0.8 0 1.3 0 1.3 0.1 0 0-0.5 0.1-1.3 0.1q-1.4 0-3.4 0.1c-3 0-7 0-11.5 0h-0.3v-0.2q0-0.1 0-0.3c0-4.5 0-8.6 0.1-11.6q0-2.1 0.1-3.5c0-0.9 0-1.3 0.1-1.3z"/>
				</g>
			</g>
			<g id="&lt;Group&gt;">
				<g id="&lt;Group&gt;">
					<path id="&lt;Path&gt;" class="s0" d="m587.4 249.4c0-0.1 0.5-0.1 1.3-0.1q1.4 0 3.5-0.1c3 0 7.1-0.1 11.7-0.1q0.1 0 0.2 0l-0.2 0.3c0-4.5 0-8.6 0-11.5q0.1-2.1 0.1-3.5c0.1-0.8 0.1-1.3 0.1-1.3 0.1 0 0.1 0.5 0.1 1.3q0.1 1.4 0.1 3.5c0.1 2.9 0.1 7 0.1 11.5v0.2h-0.3q-0.1 0-0.2 0c-4.6 0-8.7 0-11.7 0q-2.1-0.1-3.5-0.1c-0.8 0-1.3-0.1-1.3-0.1z"/>
				</g>
			</g>
			<g id="&lt;Group&gt;">
				<g id="&lt;Group&gt;">
					<path id="&lt;Path&gt;" class="s0" d="m603.9 212.1c0 0-0.1-0.4-0.1-1.3q0-1.4-0.1-3.5c0-3-0.1-7.1-0.1-11.7q0-0.1 0-0.2l0.3 0.3c-4.5 0-8.6-0.1-11.5-0.1q-2.1-0.1-3.5-0.1c-0.8 0-1.3-0.1-1.3-0.1 0 0 0.5-0.1 1.3-0.1q1.4 0 3.5-0.1c2.9 0 7-0.1 11.5-0.1h0.2v0.3q0 0.1 0 0.2c0 4.6 0 8.7 0 11.7q-0.1 2.1-0.1 3.5c0 0.9-0.1 1.3-0.1 1.3z"/>
				</g>
			</g>
		</g>
		<g id="&lt;Group&gt;">
			<g id="&lt;Group&gt;">
				<g id="&lt;Group&gt;">
					<g id="&lt;Group&gt;">
						<path id="&lt;Path&gt;" class="s1" d="m351.5 463.5c25.2-12.2 35-40.8 38.3-67.4 0.6-4.5 1.8-9.1 0.3-13.3-1.5-4.2-5.9-7.6-10.2-6.4-3.5 1-5.6 4.6-7.9 7.5-3.1 3.8-7.3 6.7-11.9 8.2-3.1 1.1-6.7 1.4-9.2-0.6-3.5-2.7-3.1-8-2.4-12.4q2-12.3 4.1-24.6c0.7-4.3 1.4-8.8 0.7-13.2-0.7-4.4-3.1-8.8-7.1-10.6-4-1.8-9.5-0.2-11.1 3.9-0.6 1.7-0.6 3.7-1 5.5-0.4 1.8-1.6 3.7-3.4 3.9-1.8 0.2-3.4-1.3-4.5-2.8-3.8-5.2-6-11.4-8-17.5-1.9-6.1-3.8-12.4-7.1-17.9-3.4-5.5-8.5-10.2-14.7-11.6-6.2-1.3-13.6 1.5-16.1 7.4-2.6 5.9 0 12.8 3.1 18.4 4.7 8.4 10.5 16.1 17.4 22.7 1.2 1.3 2.5 2.6 2.8 4.3 0.5 3-2.8 5.5-5.8 6-3.4 0.6-6.9-0.3-10.4-0.5-3.5-0.1-7.5 0.8-9.3 3.8-2.5 4.3 0.5 9.6 3.7 13.2 6.4 7.4 14.1 13.6 22.6 18.3 3 1.7 6.3 3.3 8.5 6 2.3 2.7 3.2 6.9 1.1 9.7-2 2.9-6.2 3.2-9.5 2.1-3.3-1.2-6-3.5-9.1-5.3-5.6-3.2-13.5-4-18.2 0.6-3.1 3-4.1 7.7-3.4 12 0.6 4.3 2.6 8.3 4.9 12 7.9 12.8 18.8 24 32 31 13.3 7.1 26 10.5 40.8 7.6z"/>
					</g>
				</g>
			</g>
			<g id="&lt;Group&gt;">
				<g id="&lt;Group&gt;">
					<g id="&lt;Group&gt;">
						<g id="&lt;Group&gt;">
							<path id="&lt;Path&gt;" class="s0" d="m347.9 464.9c0.7-10.6 1.2-5.1-0.6-19-1.8-14-5-29.2-8.9-44.9q-1.5-5.9-3-11.7c-0.9-3.8-1.9-7.6-3.1-11.2-2.3-7.3-5-14.2-7.9-20.6-2.8-6.4-5.7-12.4-8.5-18-2.8-5.5-5.5-10.7-8.2-15.3-5.3-9.2-10.4-16.1-14.1-20.7-1.9-2.3-3.4-4-4.4-5.2q-0.8-0.8-1.2-1.3-0.4-0.4-0.4-0.4 0 0 0.3 0.5 0.5 0.5 1.2 1.3c1 1.2 2.4 3 4.2 5.3 3.7 4.7 8.7 11.6 13.9 20.8 2.6 4.6 5.3 9.8 8.1 15.3 2.7 5.6 5.6 11.6 8.4 18 2.8 6.4 5.6 13.3 7.9 20.5 1.1 3.7 2.1 7.4 3.1 11.2q1.4 5.8 2.9 11.7c3.9 15.7 7.1 30.8 8.9 44.8 1.8 13.9 1.4 8.3 0.8 18.9"/>
						</g>
					</g>
				</g>
			</g>
			<g id="&lt;Group&gt;">
				<g id="&lt;Group&gt;">
					<g id="&lt;Group&gt;">
						<g id="&lt;Group&gt;">
							<path id="&lt;Path&gt;" class="s0" d="m332.1 378c0.1 0 0.3-0.6 0.7-1.8 0.5-1.2 1-2.9 1.7-5 1.3-4.3 2.9-10.3 4.7-16.9 1.7-6.5 3.4-12.5 4.8-16.7 0.7-2.1 1.3-3.8 1.7-5 0.4-1.2 0.6-1.9 0.5-1.9 0 0-0.3 0.6-0.8 1.8-0.5 1.1-1.2 2.8-1.9 4.9-1.6 4.2-3.4 10.1-5.1 16.7-1.7 6.5-3.3 12.4-4.5 16.9q-0.8 3.1-1.4 5.1c-0.3 1.2-0.4 1.9-0.4 1.9z"/>
						</g>
					</g>
				</g>
			</g>
			<g id="&lt;Group&gt;">
				<g id="&lt;Group&gt;">
					<g id="&lt;Group&gt;">
						<g id="&lt;Group&gt;">
							<path id="&lt;Path&gt;" class="s0" d="m277.3 358.5c0 0 0.8 0.3 2.2 0.6 1.4 0.4 3.5 0.9 6.1 1.6 5 1.4 12 3.5 19.6 6.2 7.5 2.8 14.3 5.5 19.1 7.7 2.4 1 4.4 1.9 5.7 2.5 1.3 0.7 2.1 1 2.1 0.9 0 0-0.7-0.4-2-1.2-1.3-0.7-3.2-1.7-5.6-2.8-4.7-2.3-11.5-5.1-19.1-7.8-7.5-2.8-14.6-4.8-19.7-6.1-2.6-0.6-4.7-1.1-6.1-1.3-1.5-0.3-2.3-0.4-2.3-0.3z"/>
						</g>
					</g>
				</g>
			</g>
			<g id="&lt;Group&gt;">
				<g id="&lt;Group&gt;">
					<g id="&lt;Group&gt;">
						<g id="&lt;Group&gt;">
							<path id="&lt;Path&gt;" class="s0" d="m346.7 444.7q0.1 0 0.5-0.6 0.6-0.8 1.3-1.9c1.1-1.7 2.7-4.1 4.6-7.1 3.7-6 8.6-14.5 13.9-24 5.4-9.5 10.2-18 13.8-24.1 1.8-3 3.3-5.4 4.3-7.2q0.7-1.2 1.2-2 0.4-0.7 0.4-0.7-0.1 0-0.5 0.6-0.6 0.8-1.3 1.9c-1.1 1.7-2.7 4.1-4.6 7.1-3.7 6-8.7 14.5-14 24-5.3 9.5-10.1 18-13.7 24.1-1.8 3-3.3 5.4-4.3 7.2q-0.7 1.2-1.2 2-0.4 0.7-0.4 0.7z"/>
						</g>
					</g>
				</g>
			</g>
			<g id="&lt;Group&gt;">
				<g id="&lt;Group&gt;">
					<g id="&lt;Group&gt;">
						<g id="&lt;Group&gt;">
							<path id="&lt;Path&gt;" class="s0" d="m275.5 408.6q0 0 0.7 0.4 0.8 0.4 2.1 1.1c1.9 0.9 4.5 2.3 7.6 3.9 6.4 3.2 15.3 7.9 25 13 9.8 5.1 18.7 9.7 25.2 12.8 3.2 1.6 5.9 2.9 7.7 3.7q1.3 0.6 2.2 0.9 0.7 0.3 0.7 0.3 0 0-0.7-0.4-0.8-0.5-2-1.1c-1.9-1-4.5-2.3-7.6-3.9-6.5-3.3-15.3-7.9-25.1-13-9.7-5.2-18.6-9.7-25.1-12.9-3.3-1.5-5.9-2.8-7.8-3.6q-1.3-0.6-2.1-1-0.8-0.3-0.8-0.2z"/>
						</g>
					</g>
				</g>
			</g>
		</g>
		<g id="&lt;Group&gt;">
			<g id="&lt;Group&gt;">
				<g id="&lt;Group&gt;">
					<g id="&lt;Group&gt;">
						<g id="&lt;Group&gt;">
							<path id="&lt;Path&gt;" class="s2" d="m519.2 101.2h158.9c0 0-14-25.6-54.9-21.9-39.1 3.6-41.1-12.5-60.9-14.5-19.9-2-36.4 13.2-43.1 36.4z"/>
						</g>
					</g>
				</g>
			</g>
		</g>
		<g id="&lt;Group&gt;">
			<g id="&lt;Group&gt;">
				<g id="&lt;Group&gt;">
					<g id="&lt;Group&gt;">
						<g id="&lt;Group&gt;">
							<path id="&lt;Path&gt;" class="s2" d="m596 147.9h87.3c0 0-7.7-14-30.2-12-21.5 2-22.6-6.9-33.5-8-10.9-1-20 7.3-23.6 20z"/>
						</g>
					</g>
				</g>
			</g>
		</g>
		<g id="&lt;Group&gt;">
			<g id="&lt;Group&gt;">
				<g id="&lt;Group&gt;">
					<g id="&lt;Group&gt;">
						<g id="&lt;Group&gt;">
							<path id="&lt;Path&gt;" class="s1" d="m330.5 135h120.7c0 0-10.7-19.4-41.8-16.6-29.6 2.7-31.1-9.6-46.2-11.1-15.1-1.5-27.7 10.1-32.7 27.7z"/>
						</g>
					</g>
				</g>
			</g>
		</g>
	</g>
	<g id="Floor">
		<g id="&lt;Group&gt;">
			<g id="&lt;Group&gt;">
				<path id="&lt;Path&gt;" class="s3" d="m715 465.3c0 0.2-152.2 0.3-340 0.3-187.8 0-340-0.1-340-0.3 0-0.1 152.2-0.2 340-0.2 187.8 0 340 0.1 340 0.2z"/>
			</g>
		</g>
	</g>
	<g id="Plants">
		<g id="&lt;Group&gt;">
			<g id="&lt;Group&gt;">
				<path id="&lt;Path&gt;" class="s4" d="m382.2 332.1c0 0 7.6 0.4 4.9 17.1-2.6 16.7-5.4 25.5-5.4 25.5 0 0-0.2 3.7 2.8 3.3 2.9-0.4 8.8-3.4 11.2-0.3 2.4 3.1 0.9 7.3-3.4 11.9-4.2 4.7-13.2 15.2-14.1 16.2-0.8 0.9-1.2 2.8 0.8 2.9 2.1 0 16.4-3.1 17.5 3.8 1 6.9-13 17.9-14.5 19.2-1.5 1.2-1.7 2.1-1.3 3 0.5 0.9 5.2-0.6 9.3-1.3 4.2-0.7 9.1-0.8 9.3 3.2 0.3 4-6.6 14.9-28.8 24.7l-10.6 3.8-8.7-7.1c-17.9-16.5-20.8-29-19.3-32.7 1.6-3.8 6.2-2.1 9.9-0.1 3.6 2 7.6 5 8.3 4.3 0.8-0.7 0.9-1.6-0.1-3.3-1.1-1.6-10.8-16.6-7.5-22.8 3.2-6.2 15.8 1.4 17.7 2 2 0.7 2.2-1.3 1.7-2.4-0.4-1.2-5.5-14.1-8-19.9-2.6-5.8-2.6-10.2 0.7-12.4 3.2-2.1 7.8 2.7 10.5 4 2.7 1.4 3.7-2.3 3.7-2.3 0 0 0.2-9.1 3.2-25.8 2.9-16.7 10.4-14.5 10.4-14.5"/>
			</g>
			<g id="&lt;Group&gt;">
				<g id="&lt;Group&gt;">
					<path id="&lt;Path&gt;" class="s3" d="m379.9 347.1q0 0-0.1 0.3 0 0.4-0.1 0.9-0.2 1.2-0.6 3.5c-0.5 3-1.2 7.3-2.1 12.6-1.8 10.7-4.2 25.4-6.9 41.7-2.7 16.3-5.1 31.1-7 41.8-1 5.3-1.7 9.6-2.3 12.6q-0.4 2.2-0.6 3.4-0.1 0.6-0.2 0.9-0.1 0.3-0.1 0.3 0 0 0.1-0.3 0-0.3 0.1-0.9 0.2-1.2 0.6-3.5c0.5-3 1.2-7.3 2.1-12.6 1.8-10.7 4.2-25.4 6.9-41.7 2.6-16.3 5.1-31.1 7-41.8 0.9-5.3 1.7-9.6 2.3-12.6q0.4-2.2 0.6-3.4 0.1-0.6 0.2-0.9 0-0.3 0.1-0.3z"/>
				</g>
			</g>
			<g id="&lt;Group&gt;">
				<g id="&lt;Group&gt;">
					<path id="&lt;Path&gt;" class="s3" d="m387.6 382.2c0.1 0-0.8 0.8-2.2 2-1.5 1.3-3.4 2.9-5.6 4.7-2.1 1.9-4.1 3.6-5.6 4.7q-1.1 0.9-1.7 1.4-0.7 0.4-0.7 0.4c-0.1 0 0.8-0.8 2.2-2 1.5-1.3 3.4-3 5.5-4.8 2.2-1.9 4.2-3.5 5.7-4.6q1.1-0.9 1.7-1.4 0.7-0.4 0.7-0.4z"/>
				</g>
			</g>
			<g id="&lt;Group&gt;">
				<g id="&lt;Group&gt;">
					<path id="&lt;Path&gt;" class="s3" d="m370.8 395c-0.1 0-3.4-4.1-7.5-9.3-4-5.2-7.2-9.4-7.1-9.5 0.1-0.1 3.4 4.1 7.5 9.2 4 5.2 7.2 9.5 7.1 9.6z"/>
				</g>
			</g>
			<g id="&lt;Group&gt;">
				<g id="&lt;Group&gt;">
					<path id="&lt;Path&gt;" class="s3" d="m367.5 424q0 0-0.7-0.4-0.7-0.5-1.9-1.3c-1.6-1-3.8-2.5-6.1-4.3-2.3-1.8-4.3-3.6-5.7-4.9q-1-1-1.6-1.5-0.6-0.6-0.6-0.7c0.1 0 1 0.8 2.4 2 1.5 1.2 3.5 2.9 5.8 4.7 2.3 1.8 4.4 3.4 5.9 4.5 1.6 1.1 2.5 1.8 2.5 1.9z"/>
				</g>
			</g>
			<g id="&lt;Group&gt;">
				<g id="&lt;Group&gt;">
					<path id="&lt;Path&gt;" class="s3" d="m385.2 415.7c0.1 0.1-0.9 0.6-2.5 1.3-1.6 0.8-3.8 1.8-6.3 2.9-2.4 1.1-4.6 2.1-6.3 2.8-1.6 0.7-2.6 1-2.6 1-0.1-0.1 0.9-0.6 2.5-1.3 1.6-0.8 3.8-1.8 6.3-2.9 2.4-1.1 4.7-2.1 6.3-2.7 1.6-0.7 2.6-1.1 2.6-1.1z"/>
				</g>
			</g>
			<g id="&lt;Group&gt;">
				<g id="&lt;Group&gt;">
					<path id="&lt;Path&gt;" class="s3" d="m385.6 441.7c0 0-0.3 0.2-0.9 0.5q-1 0.4-2.4 1.1c-2.1 0.9-4.9 2.2-8.1 3.6-3.2 1.4-6 2.6-8.1 3.5q-1.5 0.6-2.5 1c-0.6 0.2-0.9 0.3-0.9 0.3 0 0 0.3-0.2 0.8-0.5q1-0.4 2.5-1.1c2-1 4.9-2.2 8-3.6 3.2-1.4 6.1-2.6 8.1-3.5q1.5-0.6 2.5-1c0.6-0.2 0.9-0.3 1-0.3z"/>
				</g>
			</g>
			<g id="&lt;Group&gt;">
				<g id="&lt;Group&gt;">
					<path id="&lt;Path&gt;" class="s3" d="m363.1 451.3c0 0-0.3-0.2-0.9-0.6-0.5-0.3-1.3-0.9-2.3-1.6-1.9-1.5-4.6-3.5-7.4-5.9-2.9-2.3-5.4-4.6-7.1-6.2-0.9-0.8-1.6-1.5-2.1-2-0.5-0.5-0.7-0.8-0.7-0.8 0 0 0.3 0.2 0.8 0.7q0.9 0.7 2.2 1.9c1.8 1.6 4.3 3.8 7.1 6.1 2.9 2.4 5.5 4.4 7.4 5.9q1.3 1.1 2.2 1.8c0.6 0.4 0.9 0.7 0.8 0.7z"/>
				</g>
			</g>
		</g>
		<g id="&lt;Group&gt;">
			<g id="&lt;Group&gt;">
				<g id="&lt;Group&gt;">
					<g id="&lt;Group&gt;">
						<path id="&lt;Path&gt;" class="s4" d="m75.4 439.1c3-1.5 6.5-1.7 9.8-1.2 1.8 0.3 3.7 0.9 4.9 2.2 1.2 1.4 1.4 3.7 0.1 4.9-0.9 0.7-2 0.8-3.1 0.7-2.6 0-5.5-0.4-7.6 1.1-1.2 0.9-2 2.4-3.4 2.8-1.4 0.5-2.9-0.3-3.7-1.6-0.7-1.3-0.7-2.8-0.4-4.2 0 0 0.4-3.1 3.4-4.7z"/>
					</g>
				</g>
			</g>
			<g id="&lt;Group&gt;">
				<g id="&lt;Group&gt;">
					<g id="&lt;Group&gt;">
						<path id="&lt;Path&gt;" class="s4" d="m68.5 425.9c1.9 2.6 5.4 1.8 7.1 0.2 1.6-1.6 2.3-3.9 3-6.2 1.4-5 2.9-10.3 1.8-15.4-0.3-1.5-0.9-3.1-2-4.2-1.1-1.1-2.7-1.8-4.2-1.4-1.8 0.5-2.9 2.2-3.7 3.9-2.4 4.9-3.7 10.3-3.7 15.8 0 2.5 0.3 5.2 1.7 7.3z"/>
					</g>
				</g>
			</g>
			<g id="&lt;Group&gt;">
				<g id="&lt;Group&gt;">
					<g id="&lt;Group&gt;">
						<path id="&lt;Path&gt;" class="s4" d="m63.5 429.7c2-2.4 2.4-5.8 1.5-8.8-0.9-2.9-2.9-5.5-5.2-7.5-2.7-2.4-5.9-4.3-9.3-5.5-1.3-0.5-2.7-0.8-4.1-0.7-1.5 0.1-2.9 0.9-3.5 2.1-1 1.9-0.1 4.1 0.9 6q2.7 4.9 6.1 9.3c1.9 2.3 3.9 4.7 6.7 5.7 2.8 1.1 5.7 1 7.2-1"/>
					</g>
				</g>
			</g>
			<g id="&lt;Group&gt;">
				<g id="&lt;Group&gt;">
					<g id="&lt;Group&gt;">
						<g id="&lt;Group&gt;">
							<path id="&lt;Path&gt;" class="s3" d="m68.4 465.3c0.1 0 0.1-0.4 0.2-1.2q0.1-1.3 0.3-3.2c0.2-1.4 0.4-3 0.7-4.7 0.4-1.8 1-3.7 1.8-5.7 0.7-1.9 1.7-3.6 2.8-5 1.1-1.4 2.4-2.5 3.6-3 1.3-0.6 2.3-0.9 3.1-1 0.8-0.1 1.2-0.1 1.2-0.2 0 0-0.4 0-1.2 0-0.8 0.1-1.9 0.3-3.2 0.8-1.3 0.6-2.7 1.6-3.8 3.1-1.2 1.4-2.2 3.2-3 5.2-0.8 1.9-1.4 3.9-1.7 5.7-0.4 1.8-0.5 3.4-0.6 4.8-0.1 1.4-0.2 2.5-0.2 3.2 0 0.8 0 1.2 0 1.2z"/>
						</g>
					</g>
				</g>
			</g>
			<g id="&lt;Group&gt;">
				<g id="&lt;Group&gt;">
					<g id="&lt;Group&gt;">
						<g id="&lt;Group&gt;">
							<path id="&lt;Path&gt;" class="s3" d="m68.6 462.8q0.1 0 0.1-0.5 0-0.6 0-1.6c0-1.4 0-3.3 0-5.8 0.2-4.9 0.6-10.1 1.4-17.5 0.8-7 1.8-15.1 2.9-20.4q0.3-1.8 0.7-3.2 0.3-1.5 0.5-2.5 0.3-0.9 0.4-1.5 0.1-0.5 0.1-0.5 0 0-0.2 0.5-0.2 0.6-0.4 1.5-0.3 1-0.7 2.4-0.4 1.4-0.7 3.2c-1.1 4.8-2.3 11.5-3.1 18.9-0.8 7.4-1.2 14.2-1.2 19.1 0 2.5 0 4.5 0.1 5.8q0 1 0.1 1.6 0 0.5 0 0.5z"/>
						</g>
					</g>
				</g>
			</g>
			<g id="&lt;Group&gt;">
				<g id="&lt;Group&gt;">
					<g id="&lt;Group&gt;">
						<g id="&lt;Group&gt;">
							<path id="&lt;Path&gt;" class="s3" d="m68.7 449.8c0 0 0-0.6 0-1.7-0.1-1-0.2-2.5-0.5-4.4-0.4-1.9-0.8-4.1-1.5-6.5-0.3-1.1-1-3.8-2.7-7.7-2.3-5.4-5.3-9.7-8-12.4-0.6-0.7-1.3-1.3-1.9-1.8q-0.4-0.4-0.8-0.7-0.4-0.2-0.7-0.5c-0.9-0.6-1.4-0.9-1.4-0.8-0.1 0.1 2 1.3 4.6 4 2.5 2.7 5.5 7.1 7.7 12.4 1.3 2.9 2.2 5.4 2.8 7.6 0.7 2.4 1.2 4.6 1.5 6.4 0.4 1.9 0.6 3.4 0.7 4.5 0.1 1 0.1 1.6 0.2 1.6z"/>
						</g>
					</g>
				</g>
			</g>
		</g>
	</g>
	<g id="Arrow">
		<g id="&lt;Group&gt;">
			<g id="&lt;Group&gt;">
				<path id="&lt;Path&gt;" class="s5" d="m486.8 372.2l2.6-7.7 3.9-0.8 5.8 6.2 0.5 17.6-3.7 1.2z"/>
			</g>
			<g id="&lt;Group&gt;">
				<path id="&lt;Path&gt;" class="s3" d="m520.5 465.3l-28.7-107.2c-0.3-1.1-1.5-1.8-2.6-1.4-1 0.3-1.6 1.3-1.3 2.3l28.5 106.5"/>
			</g>
		</g>
	</g>
	<g id="Bullseye">
		<g id="&lt;Group&gt;">
			<g id="&lt;Group&gt;">
				<g id="&lt;Group&gt;">
					<path id="&lt;Path&gt;" class="s3" d="m557.8 391.5l-16.7 73.8h10.1l17-71.1z"/>
				</g>
				<g id="&lt;Group&gt;">
					<path id="&lt;Path&gt;" class="s3" d="m598.7 395.9c0 0.7 15.2 69.4 15.2 69.4h9.5l-17.1-73.8z"/>
				</g>
				<g id="&lt;Group&gt;">
					<path id="&lt;Path&gt;" class="s3" d="m628.4 378.1c0.2 0.8 40.7 87.2 40.7 87.2h10.5l-45.2-93z"/>
				</g>
			</g>
			<g id="&lt;Group&gt;">
				<path id="&lt;Path&gt;" class="s3" d="m648.7 371.1c-17.2 33-54.5 48.5-83.2 34.5-28.8-14-38.1-52.1-20.9-85.1 17.2-33 54.5-48.4 83.2-34.5 28.8 14 38.1 52.1 20.9 85.1z"/>
			</g>
			<g id="&lt;Group&gt;">
				<path id="&lt;Path&gt;" class="s2" d="m642.6 367.6c-16.7 32.1-52.2 47.5-79.1 34.3-27-13.1-35.3-49.7-18.6-81.8 16.8-32.1 52.2-47.5 79.2-34.3 27 13.1 35.3 49.7 18.5 81.8z"/>
				<path id="&lt;Compound Path&gt;" class="s3" d="m584.1 407.1c-7.2 0-14.3-1.5-20.9-4.7-11.4-5.6-20.1-15.8-24.4-28.8-5.5-16.7-3.4-36.3 5.7-53.8 16.8-32.2 52.6-47.7 79.8-34.5 11.5 5.6 20.2 15.8 24.4 28.8 5.5 16.7 3.5 36.3-5.6 53.7l-0.5-0.2 0.5 0.2c-12.8 24.5-36.4 39.3-59 39.3zm19.3-125.5c-22.2 0-45.4 14.6-58 38.7-9 17.2-11.1 36.5-5.6 53 4.1 12.7 12.6 22.7 23.9 28.2 26.7 13 61.9-2.3 78.5-34.1 9-17.3 11-36.6 5.6-53-4.2-12.7-12.7-22.7-23.9-28.2-6.5-3.1-13.4-4.6-20.5-4.6z"/>
			</g>
			<g id="&lt;Group&gt;">
				<path id="&lt;Path&gt;" class="s4" d="m608.2 349.9c-5.5 10.6-16.4 15.9-24.3 12.1-8-3.9-10-15.5-4.5-26 5.5-10.5 16.4-15.9 24.3-12.1 7.9 3.9 9.9 15.5 4.5 26z"/>
			</g>
			<g id="&lt;Group&gt;">
				<path id="&lt;Compound Path&gt;" class="s4" d="m585.9 384.6c-4.5 0-8.8-0.9-12.7-3-6.6-3.5-11.2-9.4-13.6-17.2-3.2-11.1-1.2-24.2 5.4-36.1 11.7-20.8 34.4-30.7 50.5-22.2 6.6 3.4 11.3 9.4 13.6 17.2 3.3 11.1 1.3 24.2-5.4 36.1-8.8 15.7-24 25.2-37.8 25.2zm16.8-73.6c-10.9 0-23.3 8.1-30.7 21.2-5.5 9.9-7.3 21-4.7 29.9 1.7 5.7 5 10 9.7 12.4 12.3 6.5 30.2-2 39.8-19 5.5-9.9 7.3-21 4.7-29.9-1.7-5.7-5.1-10-9.7-12.4-2.8-1.5-5.9-2.2-9.1-2.2z"/>
			</g>
			<g id="&lt;Group&gt;">
				<path id="&lt;Compound Path&gt;" class="s4" d="m584.2 400.4c-7.2 0-14.1-1.6-20.4-5.1-9.7-5.4-16.8-14.8-19.9-26.4-4.1-15.4-1.2-33.2 8.2-48.8 16.9-28.3 49.6-40.7 72.9-27.7 9.7 5.4 16.8 14.8 19.9 26.4 4.1 15.4 1.1 33.2-8.2 48.8-12.3 20.6-33.1 32.8-52.5 32.8zm20.3-105.2c-16.6 0-34.7 10.8-45.6 29-8.2 13.8-10.9 29.3-7.3 42.6 2.6 9.6 8.1 17.1 16.1 21.5 19.5 10.9 47.4-0.2 62.1-24.8 8.3-13.8 10.9-29.3 7.4-42.6-2.6-9.7-8.2-17.1-16.1-21.5-5.1-2.8-10.8-4.2-16.6-4.2z"/>
			</g>
			<g id="&lt;Group&gt;">
				<g id="&lt;Group&gt;">
					<path id="&lt;Path&gt;" class="s5" d="m511.7 287.8l-2.4-7.8 2.6-2.9 8.4 1.5 10.8 13.9-2.3 3.2z"/>
				</g>
				<g id="&lt;Group&gt;">
					<path id="&lt;Path&gt;" class="s3" d="m504.8 276.5l86 68.9c0.8 0.7 1.8 0.4 2.5-0.4 0.7-0.8 0.8-1.8 0-2.5l-85.9-69c-0.9-0.8-2.2-0.6-2.9 0.3-0.7 0.8-0.5 2 0.3 2.7z"/>
				</g>
			</g>
			<g id="&lt;Group&gt;">
				<g id="&lt;Group&gt;">
					<path id="&lt;Path&gt;" class="s3" d="m593.5 338.3c0.1 0 0.5 0.6 0.8 1.7 0.3 1.1 0.3 2.9-0.6 4.5-1 1.5-2.4 2.4-3.5 2.8-1.1 0.4-1.8 0.3-1.8 0.3-0.1-0.1 0.6-0.2 1.7-0.6 1-0.5 2.3-1.4 3.1-2.8 0.8-1.4 0.9-3 0.8-4.1-0.2-1.1-0.5-1.7-0.5-1.8z"/>
				</g>
			</g>
		</g>
	</g>
	<g id="Character">
		<g id="&lt;Group&gt;">
			<g id="&lt;Group&gt;">
				<g id="&lt;Group&gt;">
					<g id="&lt;Group&gt;">
						<g id="&lt;Group&gt;">
							<path id="&lt;Path&gt;" class="s5" d="m105.5 203.8v-6.1l2.5-1.6 5.7 3 4.8 12.3-2.4 1.8z"/>
						</g>
						<g id="&lt;Group&gt;">
							<path id="&lt;Path&gt;" class="s3" d="m152.9 261.4l-47.4-68.9c-0.5-0.7-1.5-0.9-2.2-0.4-0.6 0.5-0.7 1.4-0.3 2l47 68.4"/>
						</g>
					</g>
					<g id="&lt;Group&gt;">
						<g id="&lt;Group&gt;">
							<path id="&lt;Path&gt;" class="s5" d="m123.2 204.1l1.7-5.5 2.7-0.7 4.2 4.2 0.8 12.4-2.6 0.9z"/>
						</g>
						<g id="&lt;Group&gt;">
							<path id="&lt;Path&gt;" class="s3" d="m149.1 268.4l-22.7-74.3c-0.2-0.8-1.1-1.2-1.8-1-0.7 0.2-1.1 1-0.9 1.7l22.5 73.8"/>
						</g>
					</g>
					<g id="&lt;Group&gt;">
						<path id="&lt;Path&gt;" class="s5" d="m120.1 227.4l38 64.9c3.7 6.2 11.8 8.1 17.8 4.1 5.6-3.8 7.3-11.3 3.7-17.1l-40.4-65.6z"/>
					</g>
					<g id="&lt;Group&gt;">
						<path id="&lt;Path&gt;" class="s3" d="m120.1 227.4c0 0 7.9 6.6 15.2 1.5 7.2-5.1 3.9-15.2 3.9-15.2z"/>
					</g>
				</g>
				<g id="&lt;Group&gt;">
					<path id="&lt;Path&gt;" class="s5" d="m143.8 224.8l44-65.1 5.5-0.1-48.6 70.2z"/>
				</g>
			</g>
			<g id="&lt;Group&gt;">
				<path id="&lt;Path&gt;" class="s6" d="m291.2 166.6c-1.7 0-3.4 0.8-4.4 2.2-0.8 1-1.8 2.1-2.7 2.3-2 0.4-5.5 0.9-5.5 0.9l-0.6 11.7 12.9-0.5 12-3.3c0 0 7.5-0.1 8.7-0.2 1.4-0.1 1.5-1.6-0.9-1.6-1.5 0-5.2-1.1-5.2-1.1 0 0 6.3-0.6 7.1-1.4 0.7-0.7 0.6-1.4-0.2-1.5-1.7-0.1-7.2 0.3-7.6 0-0.4-0.2-13.6-7.5-13.6-7.5z"/>
			</g>
			<g id="&lt;Group&gt;">
				<g id="&lt;Group&gt;">
					<g id="&lt;Group&gt;">
						<g id="&lt;Group&gt;">
							<g id="&lt;Group&gt;">
								<path id="&lt;Path&gt;" class="s4" d="m231 437.4l-0.4 17.8c0 0 18 6.4 18.2 9.7l-34.6 0.4-0.5-27.8z"/>
							</g>
							<g id="&lt;Group&gt;">
								<g id="&lt;Group&gt;">
									<path id="&lt;Path&gt;" class="s0" d="m219.9 453.8c-0.7 0.2-1.1 1-1 1.6 0.2 0.7 0.9 1.2 1.6 1 0.7-0.2 1.3-1.1 1-1.7-0.2-0.7-1.1-1.2-1.8-0.8"/>
								</g>
							</g>
							<g id="&lt;Group&gt;">
								<path id="&lt;Path&gt;" class="s0" d="m214.2 465.3v-2.8l33.2 0.7c0 0 1.6 0.6 1.4 1.7z"/>
							</g>
							<g id="&lt;Group&gt;">
								<g id="&lt;Group&gt;">
									<path id="&lt;Path&gt;" class="s3" d="m231.2 455c-0.1 0.2-0.9 0.3-1.7 0.8-0.9 0.6-1.3 1.3-1.4 1.2-0.2 0 0-1 1.1-1.7 1-0.6 2-0.4 2-0.3z"/>
								</g>
							</g>
							<g id="&lt;Group&gt;">
								<g id="&lt;Group&gt;">
									<path id="&lt;Path&gt;" class="s3" d="m234.8 456.5c0 0.1-0.7 0.4-1.3 1.2-0.5 0.7-0.7 1.4-0.8 1.4-0.2 0.1-0.3-0.9 0.4-1.8 0.7-0.9 1.7-1 1.7-0.8z"/>
								</g>
							</g>
							<g id="&lt;Group&gt;">
								<g id="&lt;Group&gt;">
									<path id="&lt;Path&gt;" class="s3" d="m236.9 460.8c-0.1 0-0.4-0.8 0-1.7 0.5-1 1.2-1.3 1.3-1.2 0.1 0.1-0.4 0.6-0.7 1.4-0.4 0.8-0.4 1.5-0.6 1.5z"/>
								</g>
							</g>
							<g id="&lt;Group&gt;">
								<g id="&lt;Group&gt;">
									<path id="&lt;Path&gt;" class="s3" d="m230.8 450.9c-0.1 0.2-0.8 0-1.8 0-1 0.1-1.7 0.4-1.8 0.3-0.1-0.1 0.6-0.8 1.8-0.8 1.1-0.1 1.9 0.4 1.8 0.5z"/>
								</g>
							</g>
						</g>
						<g id="&lt;Group&gt;">
							<g id="&lt;Group&gt;">
								<path id="&lt;Path&gt;" class="s3" d="m230.8 447.3c0 0.1-0.6 0.2-1.7 0.1-0.5-0.1-1.2-0.3-1.8-0.6q-0.5-0.2-1-0.5c-0.2-0.1-0.4-0.2-0.6-0.4-0.2-0.2-0.3-0.6-0.1-0.9 0.2-0.3 0.5-0.4 0.8-0.4 0.2 0 0.4 0 0.6 0.1q0.6 0.1 1.1 0.3c0.7 0.3 1.2 0.7 1.6 1.1 0.8 0.7 1.1 1.3 1.1 1.4-0.1 0-0.5-0.5-1.3-1.1-0.4-0.3-1-0.6-1.6-0.9q-0.5-0.1-1-0.2c-0.4-0.1-0.7-0.1-0.8 0 0 0.1 0 0.1 0.1 0.2q0.1 0.2 0.4 0.3 0.4 0.3 0.9 0.5c0.6 0.3 1.2 0.5 1.7 0.6 1 0.3 1.6 0.4 1.6 0.4z"/>
							</g>
						</g>
						<g id="&lt;Group&gt;">
							<g id="&lt;Group&gt;">
								<path id="&lt;Path&gt;" class="s3" d="m230.6 447.6c-0.1 0-0.4-0.6-0.5-1.7 0-0.5 0-1.2 0.2-1.9q0.2-0.5 0.5-1c0.2-0.4 0.4-0.8 1.1-0.9 0.3 0 0.6 0.2 0.7 0.4 0.1 0.3 0.1 0.5 0.2 0.7q0.1 0.6 0 1.1c-0.1 0.8-0.4 1.4-0.7 1.8-0.7 1-1.4 1.2-1.4 1.1-0.1-0.1 0.5-0.4 1-1.3 0.3-0.4 0.5-1 0.6-1.6q0-0.5-0.1-1c0-0.4-0.2-0.7-0.3-0.6-0.2 0-0.5 0.2-0.6 0.5q-0.3 0.5-0.4 1c-0.3 0.6-0.3 1.2-0.4 1.7 0 1 0.2 1.7 0.1 1.7z"/>
							</g>
						</g>
					</g>
				</g>
				<g id="&lt;Group&gt;">
					<g id="&lt;Group&gt;">
						<path id="&lt;Path&gt;" class="s4" d="m140.1 433.1l-5.6 21.9-9.3 16c-0.7 1.2-0.2 2.7 1 3.3 0.6 0.3 1.4 0.3 2.1 0 4.2-2.3 19.6-10.7 19.9-12.4 0.4-1.8 7.4-22.7 7.4-22.7z"/>
					</g>
					<g id="&lt;Group&gt;">
						<path id="&lt;Path&gt;" class="s0" d="m126.2 474.3l22.4-13.8-0.2 0.9c-0.3 0.8-0.8 1.5-1.4 2-1.9 1.2-7 4.5-18.7 10.9-0.6 0.3-1.5 0.3-2.1 0z"/>
					</g>
					<g id="&lt;Group&gt;">
						<g id="&lt;Group&gt;">
							<path id="&lt;Path&gt;" class="s0" d="m146.1 452.2c-0.7 0.2-1.1 1-0.9 1.7 0.2 0.6 1 1.1 1.7 0.8 0.6-0.2 1.1-1.1 0.9-1.7-0.3-0.7-1.3-1.1-1.8-0.7"/>
						</g>
					</g>
					<g id="&lt;Group&gt;">
						<g id="&lt;Group&gt;">
							<path id="&lt;Path&gt;" class="s3" d="m133.8 466.1c-0.2 0.1-0.4-1.2-1.5-2.2-1.1-1-2.4-1-2.4-1.1 0-0.1 0.4-0.2 0.9-0.1 0.5 0 1.2 0.3 1.9 0.9 0.6 0.5 0.9 1.2 1 1.7 0.2 0.5 0.1 0.8 0.1 0.8z"/>
						</g>
					</g>
					<g id="&lt;Group&gt;">
						<g id="&lt;Group&gt;">
							<path id="&lt;Path&gt;" class="s3" d="m131.4 468.6c-0.1 0.1-0.6-0.8-1.7-1.4-1-0.7-2-0.7-2-0.9 0-0.1 1.1-0.3 2.3 0.4 1.2 0.8 1.5 1.9 1.4 1.9z"/>
						</g>
					</g>
					<g id="&lt;Group&gt;">
						<g id="&lt;Group&gt;">
							<path id="&lt;Path&gt;" class="s3" d="m137.7 463.2c-0.1 0.1-0.9-1.3-2.4-2.4-1.6-1.2-3.1-1.5-3.1-1.7 0-0.1 1.7 0 3.4 1.3 1.6 1.2 2.2 2.8 2.1 2.8z"/>
						</g>
					</g>
					<g id="&lt;Group&gt;">
						<g id="&lt;Group&gt;">
							<path id="&lt;Path&gt;" class="s3" d="m139.9 456.7c-0.1 0.1-1.1-0.7-2.7-1.2-1.5-0.5-2.9-0.5-2.9-0.6 0-0.1 1.4-0.4 3.1 0.1 1.6 0.5 2.6 1.6 2.5 1.7z"/>
						</g>
					</g>
					<g id="&lt;Group&gt;">
						<g id="&lt;Group&gt;">
							<path id="&lt;Path&gt;" class="s3" d="m141.7 450.3c-0.1 0.1-1.1-0.9-2.8-1.3-1.7-0.4-3 0-3.1-0.1 0-0.1 0.3-0.3 0.9-0.4 0.6-0.2 1.4-0.2 2.3 0 0.9 0.2 1.7 0.6 2.1 1 0.5 0.4 0.6 0.8 0.6 0.8z"/>
						</g>
					</g>
					<g id="&lt;Group&gt;">
						<g id="&lt;Group&gt;">
							<path id="&lt;Path&gt;" class="s3" d="m139.3 447.8c0 0 0-0.3 0.2-0.9 0.2-0.5 0.5-1.2 1.2-1.9 0.4-0.4 0.8-0.8 1.5-1 0.3 0 0.7 0.2 0.9 0.5 0.2 0.4 0.2 0.8 0.1 1.1-0.4 1.4-2 2.4-3.6 2.2-1.6-0.3-2.8-1.6-3-2.9-0.1-0.4-0.1-0.8 0.2-1.1 0.3-0.3 0.7-0.4 1-0.2 0.7 0.2 1 0.7 1.3 1.1 0.5 0.8 0.8 1.6 1 2.1 0.1 0.5 0.1 0.9 0.1 0.9-0.1 0-0.2-1.3-1.4-2.8-0.3-0.3-0.7-0.8-1.1-0.9-0.2-0.1-0.5-0.1-0.6 0.1-0.1 0.1-0.1 0.4-0.1 0.7 0.3 1.1 1.3 2.3 2.7 2.5 1.3 0.2 2.7-0.7 3-1.8 0.1-0.3 0.1-0.6 0-0.8-0.1-0.2-0.3-0.3-0.5-0.2-0.5 0-0.9 0.4-1.2 0.7-1.4 1.4-1.6 2.6-1.7 2.6z"/>
						</g>
					</g>
				</g>
			</g>
			<g id="&lt;Group&gt;">
				<g id="&lt;Group&gt;">
					<path id="&lt;Path&gt;" class="s3" d="m160.4 128.6c-0.9-2.1-1.9-4.1-2.4-6.3-0.3-1.6-0.9-4.1-0.3-5.6 0.6-1.6 2.2-3.1 4.2-2.7 0.4-3.3 2.1-5.9 5.3-7.6 3-1.5 5.9-2.3 9.1-2.6 1-0.1 2.6-0.1 3.5 0.3 0.9 0.4 1.7 1.3 2.1 2.2 1.7-1.4 4.1-1.9 6.7-1.3 2.5 0.7 5.4 1.9 6.5 4.3 0.8 1.4 1.1 3.2 0.4 5.5-0.5 1.6-2 4-3.5 3.5"/>
				</g>
				<g id="&lt;Group&gt;">
					<g id="&lt;Group&gt;">
						<g id="&lt;Group&gt;">
							<g id="&lt;Group&gt;">
								<g id="&lt;Group&gt;">
									<g id="&lt;Group&gt;">
										<g id="&lt;Group&gt;">
											<g id="&lt;Group&gt;">
												<g id="&lt;Group&gt;">
													<g id="&lt;Group&gt;">
														<g id="&lt;Group&gt;">
															<g id="&lt;Group&gt;">
																<g id="&lt;Group&gt;">
																	<path id="&lt;Path&gt;" class="s6" d="m162.9 171.4l22.6-1.1c0.1-2.4-1.1-17.2-1.1-17.2 0 0 8.6-1.4 8.7-9.9 0.1-8.6-1.4-28.3-1.4-28.3-9.9-4.2-21.4-2.8-29.9 3.8l-1.3 1z"/>
																</g>
															</g>
														</g>
													</g>
												</g>
											</g>
											<g id="&lt;Group&gt;">
												<g id="&lt;Group&gt;">
													<g id="&lt;Group&gt;">
														<g id="&lt;Group&gt;">
															<g id="&lt;Group&gt;">
																<g id="&lt;Group&gt;">
																	<path id="&lt;Path&gt;" class="s7" d="m184.4 153.1c0 0-5.4 0.3-11.1-3.3 0 0 2.7 6.1 11.3 5.3z"/>
																</g>
															</g>
														</g>
													</g>
												</g>
											</g>
										</g>
									</g>
								</g>
								<g id="&lt;Group&gt;">
									<g id="&lt;Group&gt;">
										<g id="&lt;Group&gt;">
											<g id="&lt;Group&gt;">
												<g id="&lt;Group&gt;">
													<g id="&lt;Group&gt;">
														<g id="&lt;Group&gt;">
															<path id="&lt;Path&gt;" class="s6" d="m161.6 128.5c-0.2 0-5.9-1.7-5.7 4.2 0.2 5.8 6 4.4 6 4.3 0-0.2-0.3-8.5-0.3-8.5z"/>
														</g>
													</g>
												</g>
											</g>
										</g>
									</g>
									<g id="&lt;Group&gt;">
										<g id="&lt;Group&gt;">
											<g id="&lt;Group&gt;">
												<g id="&lt;Group&gt;">
													<g id="&lt;Group&gt;">
														<g id="&lt;Group&gt;">
															<g id="&lt;Group&gt;">
																<path id="&lt;Path&gt;" class="s7" d="m160.1 134.8c-0.1 0-0.1 0.1-0.3 0.1-0.2 0.1-0.5 0.2-0.8 0.1-0.6-0.2-1.2-1.2-1.2-2.2 0-0.6 0.1-1.1 0.2-1.5 0.2-0.4 0.5-0.8 0.8-0.8 0.3-0.1 0.5 0.1 0.6 0.2 0.1 0.2 0 0.3 0.1 0.3 0 0 0.1-0.1 0-0.3q0-0.2-0.2-0.4-0.2-0.1-0.6-0.1c-0.4 0-0.8 0.5-1 0.9-0.2 0.5-0.4 1.1-0.3 1.7 0.1 1.2 0.7 2.2 1.5 2.5 0.5 0.1 0.8-0.1 1-0.2 0.2-0.2 0.2-0.3 0.2-0.3z"/>
															</g>
														</g>
													</g>
												</g>
											</g>
										</g>
									</g>
								</g>
								<g id="&lt;Group&gt;">
									<g id="&lt;Group&gt;">
										<g id="&lt;Group&gt;">
											<g id="&lt;Group&gt;">
												<g id="&lt;Group&gt;">
													<g id="&lt;Group&gt;">
														<g id="&lt;Group&gt;">
															<g id="&lt;Group&gt;">
																<g id="&lt;Group&gt;">
																	<g id="&lt;Group&gt;">
																		<g id="&lt;Group&gt;">
																			<g id="&lt;Group&gt;">
																				<g id="&lt;Group&gt;">
																					<path id="&lt;Path&gt;" class="s3" d="m190.6 129.1c-0.2 0.2-1.1-0.5-2.4-0.5-1.3-0.1-2.3 0.6-2.5 0.4 0 0 0.1-0.3 0.6-0.6 0.4-0.3 1.1-0.6 1.9-0.6 0.8 0 1.5 0.3 1.9 0.6 0.4 0.4 0.5 0.6 0.5 0.7z"/>
																				</g>
																			</g>
																		</g>
																	</g>
																</g>
															</g>
														</g>
													</g>
													<g id="&lt;Group&gt;">
														<g id="&lt;Group&gt;">
															<g id="&lt;Group&gt;">
																<g id="&lt;Group&gt;">
																	<g id="&lt;Group&gt;">
																		<g id="&lt;Group&gt;">
																			<g id="&lt;Group&gt;">
																				<path id="&lt;Path&gt;" class="s3" d="m176.9 128.7c0.1 0.6-0.5 1.2-1.1 1.2-0.7 0-1.3-0.5-1.3-1.1 0-0.6 0.5-1.2 1.2-1.2 0.6-0.1 1.2 0.4 1.2 1.1z"/>
																			</g>
																		</g>
																	</g>
																</g>
															</g>
														</g>
														<g id="&lt;Group&gt;">
															<g id="&lt;Group&gt;">
																<g id="&lt;Group&gt;">
																	<g id="&lt;Group&gt;">
																		<g id="&lt;Group&gt;">
																			<g id="&lt;Group&gt;">
																				<g id="&lt;Group&gt;">
																					<path id="&lt;Path&gt;" class="s3" d="m177.2 127.2c-0.2 0.2-1.1-0.5-2.4-0.5-1.4 0-2.3 0.7-2.5 0.5 0-0.1 0.1-0.4 0.5-0.7 0.5-0.3 1.2-0.6 2-0.6 0.8 0 1.5 0.4 1.9 0.7 0.4 0.3 0.5 0.6 0.5 0.6z"/>
																				</g>
																			</g>
																		</g>
																	</g>
																</g>
															</g>
														</g>
													</g>
													<g id="&lt;Group&gt;">
														<g id="&lt;Group&gt;">
															<g id="&lt;Group&gt;">
																<g id="&lt;Group&gt;">
																	<g id="&lt;Group&gt;">
																		<g id="&lt;Group&gt;">
																			<g id="&lt;Group&gt;">
																				<path id="&lt;Path&gt;" class="s3" d="m181.9 137c0-0.1 0.8-0.2 2.2-0.4 0.3 0 0.6-0.1 0.7-0.3 0.1-0.3-0.1-0.6-0.2-1q-0.5-1.2-1-2.6c-1.4-3.6-2.4-6.6-2.3-6.7 0.2 0 1.4 2.9 2.8 6.5q0.5 1.4 0.9 2.6c0.2 0.4 0.4 0.8 0.2 1.3-0.1 0.3-0.3 0.4-0.5 0.5-0.3 0.1-0.4 0.1-0.6 0.1-1.3 0.1-2.2 0.1-2.2 0z"/>
																			</g>
																		</g>
																	</g>
																</g>
															</g>
														</g>
													</g>
													<g id="&lt;Group&gt;">
														<g id="&lt;Group&gt;">
															<g id="&lt;Group&gt;">
																<g id="&lt;Group&gt;">
																	<g id="&lt;Group&gt;">
																		<g id="&lt;Group&gt;">
																			<g id="&lt;Group&gt;">
																				<path id="&lt;Path&gt;" class="s3" d="m178.1 137.9c0.2 0 0.2 1.4 1.4 2.4 1.2 1 2.7 0.9 2.7 1.1 0.1 0.1-0.3 0.3-0.9 0.3-0.7 0-1.6-0.2-2.3-0.8-0.8-0.6-1.1-1.5-1.1-2.1-0.1-0.6 0.1-0.9 0.2-0.9z"/>
																			</g>
																		</g>
																	</g>
																</g>
															</g>
														</g>
													</g>
												</g>
											</g>
										</g>
										<g id="&lt;Group&gt;">
											<g id="&lt;Group&gt;">
												<g id="&lt;Group&gt;">
													<g id="&lt;Group&gt;">
														<g id="&lt;Group&gt;">
															<g id="&lt;Group&gt;">
																<path id="&lt;Path&gt;" class="s3" d="m177.5 122.1c-0.1 0.3-1.5 0.2-3 0.3-1.5 0.2-2.8 0.7-3 0.3-0.1-0.1 0.1-0.5 0.6-0.8 0.5-0.4 1.3-0.7 2.3-0.8 0.9-0.1 1.7 0.1 2.3 0.3 0.6 0.2 0.8 0.5 0.8 0.7z"/>
															</g>
														</g>
													</g>
												</g>
											</g>
										</g>
										<g id="&lt;Group&gt;">
											<g id="&lt;Group&gt;">
												<g id="&lt;Group&gt;">
													<g id="&lt;Group&gt;">
														<g id="&lt;Group&gt;">
															<g id="&lt;Group&gt;">
																<path id="&lt;Path&gt;" class="s3" d="m189.6 123.2c-0.2 0.3-1.1 0-2.2-0.1-1.1 0-2 0.2-2.3-0.1 0-0.1 0.1-0.4 0.5-0.7 0.4-0.3 1.1-0.5 1.8-0.5 0.8 0 1.4 0.3 1.8 0.6 0.4 0.3 0.5 0.6 0.4 0.8z"/>
															</g>
														</g>
													</g>
												</g>
											</g>
										</g>
									</g>
								</g>
							</g>
						</g>
						<g id="&lt;Group&gt;">
							<g id="&lt;Group&gt;">
								<g id="&lt;Group&gt;">
									<path id="&lt;Path&gt;" class="s3" d="m160.1 119.3c0.1 2.5-0.5 5.3 0 7.7 0 0.4 1 1.4 1.1 1.7 0.5 2.2 1.4 3.1 2.7 0.9 0.5-0.9 0.8-3.3 1-4.2q0.8-4 1.5-7.9c2.1 0.9 4.3 1.6 6.5 1.5 2.3-0.1 4.6-1.3 5.6-3.3 1.1 1.8 3 3 5 3.3 2.1 0.3 4.2-0.4 5.7-1.9 0.8 1.3 2.6 1.6 3.8 0.8 1.3-0.7 1.8-2.3 1.4-3.7-0.6-2.1-2.8-3.3-4.9-3.9-8.1-2.4-17.1-0.5-24.5 3.8-1 0.6-2.1 1.3-2.9 2.2-0.8 0.9-2 2-2 3.3"/>
								</g>
							</g>
						</g>
					</g>
				</g>
				<g id="&lt;Group&gt;">
					<g id="&lt;Group&gt;">
						<path id="&lt;Path&gt;" class="s5" d="m166.2 119.5c0 0.1-0.5-0.1-1.3 0.3q-0.6 0.2-1.2 0.8c-0.4 0.4-0.8 0.8-1.3 1.3-0.5 0.5-1 0.9-1.6 1.1-0.6 0.2-1.2 0.2-1.7 0.1-0.9-0.3-1.2-0.7-1.2-0.8 0.1 0 0.5 0.3 1.3 0.4 0.4 0.1 0.9 0.1 1.4-0.1 0.5-0.2 1-0.6 1.5-1 0.4-0.5 0.8-1 1.3-1.4 0.5-0.4 0.9-0.6 1.4-0.8 0.9-0.3 1.5 0.1 1.4 0.1z"/>
					</g>
				</g>
				<g id="&lt;Group&gt;">
					<g id="&lt;Group&gt;">
						<path id="&lt;Path&gt;" class="s5" d="m165.3 122.1c0 0.1-0.4 0-0.9 0.4-0.3 0.2-0.5 0.5-0.7 0.9-0.3 0.4-0.7 0.8-1.1 1.1-1 0.6-2 0.7-2.7 0.6-0.7-0.1-1.1-0.3-1-0.4 0-0.1 0.4 0.1 1 0 0.7 0 1.6-0.1 2.4-0.7 0.8-0.4 1.2-1.3 1.9-1.7 0.6-0.5 1.1-0.3 1.1-0.2z"/>
					</g>
				</g>
				<g id="&lt;Group&gt;">
					<g id="&lt;Group&gt;">
						<path id="&lt;Path&gt;" class="s5" d="m187.5 104.9c0 0 0.2-0.1 0.7 0 0.5 0.2 1.1 0.5 1.7 1.2 1.1 1.5 1.4 4.1 0.6 6.6-0.7 2.6-2.6 4.4-4 5.3-0.8 0.4-1.4 0.7-1.9 0.8-0.4 0.2-0.7 0.2-0.7 0.2 0-0.1 1-0.4 2.4-1.3 1.4-0.9 3-2.7 3.8-5.1 0.7-2.4 0.4-4.9-0.5-6.3-0.5-0.6-1-1-1.5-1.2-0.4-0.1-0.6-0.2-0.6-0.2z"/>
					</g>
				</g>
				<g id="&lt;Group&gt;">
					<g id="&lt;Group&gt;">
						<path id="&lt;Path&gt;" class="s5" d="m194.6 108.3c0.1 0 0.2 0.6 0 1.6-0.2 1-0.6 2.4-1.4 3.7-0.9 1.4-1.9 2.4-2.8 2.9-0.8 0.6-1.4 0.8-1.4 0.8-0.1-0.1 2.1-1.3 3.8-3.9 1.6-2.6 1.7-5.2 1.8-5.1z"/>
					</g>
				</g>
			</g>
			<g id="&lt;Group&gt;">
				<g id="&lt;Group&gt;">
					<path id="&lt;Path&gt;" class="s4" d="m240.4 166.9c-16.2-1.1-27.2-3.6-36.9-5.1-9.6-1.6-17.2-2.3-17.2-2.3l8.3 15.1 11.5 19.6c-1.3-4.5 2.3-8.2 4.8-8.3 2.6-0.1 73.1 0.1 73.1 0.1l-1.5-16.6z"/>
				</g>
				<g id="&lt;Group&gt;">
					<path id="&lt;Path&gt;" class="s4" d="m150.6 192.5l7.3 31.8-2.7 29 59.6-0.3-8.2-64.1-20.3-29.7-42.5 2.9z"/>
				</g>
				<g id="&lt;Group&gt;">
					<path id="&lt;Path&gt;" class="s4" d="m186.3 159.2l-1.1-4-23.3 0.9v5.1z"/>
				</g>
				<g id="&lt;Group&gt;">
					<path id="&lt;Path&gt;" class="s4" d="m157 181l7.8-0.2v-18.2l-21-2c0 0-28.4-2.3-34.3-2.1-5.8 0.2-14.2 2.7-14.3 12.5 0 13.9 44.3 20.4 56.6 24.3"/>
				</g>
				<g id="&lt;Group&gt;">
					<g id="&lt;Group&gt;">
						<path id="&lt;Path&gt;" class="s3" d="m163.5 162.6q0.1 0 0.2 1.1 0.1 1.1 0.3 3c0.2 2.7 0.6 6.4 1 10.9v0.2h-0.3c-5.3-0.1-11.6-0.2-18.4-0.3-9.2-0.2-17.6-0.4-23.7-0.5-3-0.1-5.4-0.1-7.2-0.2q-1.2-0.1-1.9-0.1-0.7 0-0.7-0.1 0 0 0.7 0 0.7 0 1.9 0c1.8 0 4.2 0 7.2 0 6.1 0.1 14.5 0.3 23.7 0.4 6.8 0.2 13.2 0.3 18.4 0.4l-0.2 0.2c-0.3-4.5-0.6-8.2-0.8-10.9q-0.1-1.9-0.1-3-0.1-1.1-0.1-1.1z"/>
					</g>
				</g>
				<g id="&lt;Group&gt;">
					<g id="&lt;Group&gt;">
						<path id="&lt;Path&gt;" class="s3" d="m152.5 180.4c0 0 0.2 0.5 0.3 1.5 0 0.9-0.1 2.2-0.6 3.5-0.5 1.4-1.3 2.5-2 3.1-0.6 0.7-1.1 1-1.1 0.9-0.2-0.1 1.6-1.6 2.6-4.1 1-2.6 0.6-4.9 0.8-4.9z"/>
					</g>
				</g>
				<g id="&lt;Group&gt;">
					<g id="&lt;Group&gt;">
						<path id="&lt;Path&gt;" class="s3" d="m208.1 200.9c-0.1 0-0.3-1.2-0.6-3.1-0.2-1.8-0.6-4.4-1.1-7.3-0.5-2.8-0.9-5.4-1.3-7.2-0.4-1.9-0.7-3-0.6-3 0-0.1 0.4 1 0.9 2.9 0.5 1.8 1.1 4.4 1.5 7.2 0.5 2.9 0.8 5.5 1 7.4 0.2 1.9 0.3 3 0.2 3.1z"/>
					</g>
				</g>
				<g id="&lt;Group&gt;">
					<g id="&lt;Group&gt;">
						<path id="&lt;Path&gt;" class="s8" d="m209.6 209.8c0 0-0.6-0.6-2-1.2-1.3-0.5-3.5-0.9-6.1-0.3-2.6 0.5-5.4 2-8.4 3.8-1.5 0.9-3.1 1.9-5 2.6-1.8 0.7-3.7 1.2-5.8 1.4-4.1 0.5-8-0.2-11.3-1.6-1.7-0.6-3.2-1.5-4.5-2.3-1.3-0.8-2.6-1.6-3.8-2.1-2.3-1.2-4.6-1.4-6-1.1-1.5 0.2-2.1 0.8-2.2 0.7q0 0 0.5-0.3c0.4-0.2 0.9-0.4 1.7-0.6 1.4-0.3 3.7-0.2 6.2 0.9 1.2 0.6 2.5 1.3 3.8 2.1 1.4 0.8 2.8 1.7 4.4 2.3 3.3 1.3 7.2 1.9 11.2 1.5 2-0.2 3.9-0.7 5.7-1.4 1.7-0.7 3.3-1.6 4.9-2.5 3-1.7 5.8-3.3 8.5-3.8 2.7-0.5 4.9-0.1 6.3 0.6 0.7 0.3 1.2 0.6 1.5 0.9q0.4 0.4 0.4 0.4z"/>
					</g>
				</g>
				<g id="&lt;Group&gt;">
					<g id="&lt;Group&gt;">
						<path id="&lt;Path&gt;" class="s3" d="m191.2 231.8c0 0-0.4 0-1.2 0-0.8-0.1-1.9-0.2-3.3-0.5-2.7-0.6-6.5-2.1-9.8-4.9-3.3-2.7-5.5-6.1-6.6-8.7-0.6-1.2-1-2.3-1.2-3.1-0.2-0.7-0.2-1.2-0.2-1.2 0.1 0 0.5 1.7 1.7 4.2 1.2 2.5 3.4 5.7 6.6 8.4 3.3 2.7 6.9 4.2 9.6 4.9 2.7 0.7 4.4 0.8 4.4 0.9z"/>
					</g>
				</g>
				<g id="&lt;Group&gt;">
					<g id="&lt;Group&gt;">
						<path id="&lt;Path&gt;" class="s8" d="m212.5 238.1c0 0.1-0.7-0.4-2.1-0.9-1.4-0.5-3.6-0.9-6.2-0.6-2.7 0.3-5.8 1.2-9 2.7-3.2 1.4-6.6 3.4-10.5 4.7-3.9 1.3-8 1.3-11.5 0.7-3.5-0.7-6.5-1.8-9-2.9-2.5-1.1-4.4-2.1-5.7-2.8q-1-0.6-1.5-0.9-0.5-0.3-0.5-0.3 0-0.1 0.6 0.2 0.6 0.3 1.5 0.8c1.3 0.6 3.3 1.6 5.7 2.7 2.5 1 5.5 2.1 9 2.7 3.4 0.6 7.4 0.6 11.2-0.7 3.9-1.3 7.3-3.2 10.5-4.6 3.3-1.5 6.4-2.4 9.1-2.6 2.7-0.3 4.9 0.2 6.3 0.7q1.1 0.5 1.6 0.8 0.5 0.3 0.5 0.3z"/>
					</g>
				</g>
				<g id="&lt;Group&gt;">
					<g id="&lt;Group&gt;">
						<path id="&lt;Path&gt;" class="s8" d="m206.5 189.8q0 0.1-0.5 0.4-0.4 0.3-1.4 0.8c-1.4 0.6-3.5 1.3-6.1 1.4-2.6 0.2-5.8-0.1-9.2-0.9-3.4-0.7-7-1.9-10.9-2.7-2-0.4-3.9-0.7-5.8-0.7-1.8-0.1-3.6 0.1-5.3 0.5-3.4 0.7-6.2 2-8.6 3.1-2.3 1.2-4.1 2.3-5.4 3q-0.9 0.5-1.5 0.8-0.5 0.3-0.5 0.3 0 0 0.5-0.4 0.5-0.3 1.4-0.9c1.2-0.8 3-1.9 5.4-3.1 2.3-1.2 5.2-2.5 8.6-3.3 1.7-0.4 3.5-0.6 5.4-0.5 1.9 0 3.9 0.3 5.9 0.7 3.9 0.8 7.5 2 10.9 2.7 3.4 0.8 6.5 1.2 9.1 1 2.6-0.1 4.6-0.6 6-1.2 1.3-0.6 2-1 2-1z"/>
					</g>
				</g>
				<g id="&lt;Group&gt;">
					<g id="&lt;Group&gt;">
						<path id="&lt;Path&gt;" class="s8" d="m142.3 177.1c0 0 0.2 1 0 2.4-0.2 1.5-0.7 3.5-1.9 5.5-1.2 2-2.6 3.4-3.8 4.3-1.2 0.9-2.1 1.2-2.1 1.2-0.1-0.1 0.7-0.5 1.8-1.5 1.1-0.9 2.5-2.4 3.7-4.3 1.1-1.9 1.7-3.8 1.9-5.2 0.3-1.4 0.3-2.4 0.4-2.4z"/>
					</g>
				</g>
				<g id="&lt;Group&gt;">
					<g id="&lt;Group&gt;">
						<path id="&lt;Path&gt;" class="s8" d="m130.9 159.6c0 0.1-0.6 0.9-1.4 2.3-0.8 1.4-1.6 3.5-1.8 6-0.2 2.4 0.1 4.7 0.6 6.2 0.5 1.6 1 2.5 0.9 2.5q-0.1 0-0.4-0.6-0.4-0.6-0.8-1.8c-0.6-1.5-1.1-3.8-0.8-6.4 0.2-2.5 1.1-4.7 2-6.1 0.4-0.7 0.8-1.2 1.1-1.6q0.5-0.5 0.6-0.5z"/>
					</g>
				</g>
				<g id="&lt;Group&gt;">
					<g id="&lt;Group&gt;">
						<path id="&lt;Path&gt;" class="s8" d="m105.9 182q0 0-0.4-0.8-0.2-0.5-0.5-1.1c-0.1-0.4-0.3-0.9-0.4-1.5-0.3-1.1-0.6-2.4-0.7-3.9-0.2-1.5-0.1-3.2 0.1-4.9 0.2-1.7 0.6-3.3 1.1-4.7 0.5-1.5 1.1-2.7 1.7-3.7 0.2-0.5 0.5-0.9 0.8-1.3q0.4-0.5 0.7-0.9 0.6-0.7 0.6-0.7c0.1 0-0.8 1.1-1.8 3.1-0.5 1-1.1 2.2-1.6 3.6-0.4 1.4-0.8 3-1 4.7-0.2 1.7-0.2 3.3-0.2 4.8 0.2 1.4 0.4 2.8 0.6 3.8 0.6 2.2 1.1 3.5 1 3.5z"/>
					</g>
				</g>
				<g id="&lt;Group&gt;">
					<g id="&lt;Group&gt;">
						<path id="&lt;Path&gt;" class="s8" d="m155.3 161.3c0.1 0 0.2 0.9 0.3 2.3 0.1 1.4 0.2 3.3 0.1 5.5-0.1 2.1-0.3 4.1-0.5 5.5-0.2 1.4-0.4 2.2-0.5 2.2-0.1 0 0-0.9 0.1-2.3 0.1-1.4 0.3-3.3 0.4-5.4 0-2.2 0-4.1 0-5.5 0-1.4 0-2.3 0.1-2.3z"/>
					</g>
				</g>
				<g id="&lt;Group&gt;" style="opacity: .4">
					<g id="&lt;Group&gt;">
						<path id="&lt;Path&gt;" class="s9" d="m115.9 176.6c12.8 4.6 26.9 6.6 40.3 4.3 2.7-0.5 5.8-1 7.3-3.3"/>
					</g>
				</g>
				<g id="&lt;Group&gt;">
					<g id="&lt;Group&gt;">
						<path id="&lt;Path&gt;" class="s8" d="m210.2 163q0 0-0.2 0.4-0.2 0.5-0.7 1.3c-0.7 1.1-1.7 2.6-3.4 4.2-1.6 1.6-3.8 3.3-6.7 4.4-1.4 0.5-3 0.9-4.6 1-1.7 0.1-3.4 0-5.1-0.3-3.5-0.6-6.6-1.7-9.5-2.5-2.9-0.9-5.5-1.5-7.8-1.6-2.2-0.1-4.1 0.1-5.3 0.5-1.2 0.3-1.8 0.6-1.9 0.5q0 0 0.5-0.2 0.4-0.2 1.4-0.5c1.2-0.4 3-0.8 5.3-0.7 2.3 0.1 5 0.7 7.9 1.5 2.9 0.8 6 1.9 9.4 2.5q2.6 0.5 5 0.3c1.6-0.1 3.2-0.4 4.6-0.9 2.8-1 5-2.7 6.6-4.2 1.6-1.6 2.7-3.1 3.4-4.1 0.7-1.1 1.1-1.7 1.1-1.6z"/>
					</g>
				</g>
				<g id="&lt;Group&gt;">
					<g id="&lt;Group&gt;">
						<path id="&lt;Path&gt;" class="s8" d="m186.1 156.7c0 0-0.3 0.1-0.9 0.3-0.6 0.2-1.5 0.5-2.6 0.8-1.1 0.2-2.4 0.5-3.9 0.5-1.5 0.1-3.2-0.1-4.9-0.4-1.7-0.3-3.3-0.6-4.8-0.8-1.4-0.1-2.8-0.1-3.9 0-2.2 0.3-3.3 1.2-3.4 1.1 0 0 0.3-0.3 0.8-0.6 0.6-0.3 1.5-0.6 2.6-0.8 1.1-0.2 2.5-0.3 4-0.1 1.5 0.1 3.1 0.4 4.8 0.7 1.7 0.3 3.3 0.5 4.8 0.5 1.4-0.1 2.7-0.3 3.8-0.5 2.2-0.5 3.6-0.8 3.6-0.7z"/>
					</g>
				</g>
				<g id="&lt;Group&gt;">
					<g id="&lt;Group&gt;">
						<path id="&lt;Path&gt;" class="s8" d="m226.3 165.5q0.1 0 0.1 0.9c0.1 0.6 0.1 1.4 0.1 2.4-0.1 1.1-0.2 2.3-0.5 3.6-0.3 1.3-0.8 2.8-1.5 4.2-0.6 1.5-1.4 2.8-2.2 3.9-0.8 1.1-1.6 2-2.4 2.7-0.7 0.7-1.4 1.2-1.9 1.6q-0.7 0.5-0.7 0.4c-0.1 0 0.9-0.8 2.3-2.3 0.8-0.7 1.5-1.6 2.3-2.7 0.8-1.1 1.5-2.4 2.2-3.8 0.6-1.4 1.1-2.8 1.4-4.1 0.3-1.3 0.5-2.5 0.6-3.5 0.2-2 0.1-3.3 0.2-3.3z"/>
					</g>
				</g>
				<g id="&lt;Group&gt;">
					<g id="&lt;Group&gt;">
						<path id="&lt;Path&gt;" class="s8" d="m249.1 167.3c0.1 0-0.2 1.1-0.5 2.8-0.2 1.6-0.4 4-0.3 6.6 0.2 2.6 0.6 4.9 1.1 6.6 0.4 1.6 0.8 2.6 0.7 2.7 0 0-0.5-1-1.1-2.6-0.5-1.7-1.1-4-1.2-6.7-0.2-2.6 0.1-5 0.5-6.7 0.3-1.7 0.7-2.7 0.8-2.7z"/>
					</g>
				</g>
				<g id="&lt;Group&gt;">
					<g id="&lt;Group&gt;">
						<path id="&lt;Path&gt;" class="s8" d="m271.8 186c-0.1 0-0.1-1-0.1-2.5 0-1.8 0-3.8 0-6.1 0-2.2 0-4.2-0.1-6 0-1.5 0-2.5 0.1-2.5 0.1 0 0.2 1 0.3 2.5 0.1 1.5 0.2 3.7 0.2 6 0 2.4 0 4.5-0.2 6.1-0.1 1.5-0.2 2.5-0.2 2.5z"/>
					</g>
				</g>
			</g>
			<g id="&lt;Group&gt;">
				<g id="&lt;Group&gt;">
					<g id="&lt;Group&gt;">
						<g id="&lt;Group&gt;">
							<g id="&lt;Group&gt;">
								<g id="&lt;Group&gt;">
									<g id="&lt;Group&gt;">
										<g id="&lt;Group&gt;">
											<g id="&lt;Group&gt;">
												<path id="&lt;Path&gt;" class="s3" d="m213.5 245.5l22 202.8-26.1 2.1-22.4-177.4-27.1 176.2-28.1-4.1 24.5-198.9z"/>
											</g>
										</g>
									</g>
								</g>
							</g>
						</g>
					</g>
					<g id="&lt;Group&gt;">
						<g id="&lt;Group&gt;">
							<path id="&lt;Path&gt;" class="s5" d="m168.6 256.1q0.1 0 0 0.7c0 0.5-0.1 1.2-0.4 2-0.2 0.8-0.6 1.8-1.2 2.8-0.5 1-1.3 2-2.2 3-0.9 0.9-1.9 1.7-2.8 2.3-1 0.6-1.9 1.1-2.7 1.3-0.8 0.3-1.5 0.5-2 0.5q-0.7 0.2-0.7 0.1c0-0.1 1-0.3 2.5-0.9 0.8-0.3 1.7-0.8 2.6-1.4 0.9-0.6 1.9-1.4 2.8-2.3 0.8-0.9 1.5-1.9 2.1-2.9 0.6-0.9 1-1.8 1.3-2.6 0.5-1.6 0.7-2.6 0.7-2.6z"/>
						</g>
					</g>
					<g id="&lt;Group&gt;">
						<g id="&lt;Group&gt;">
							<path id="&lt;Path&gt;" class="s5" d="m187.8 254.6c0.1 0 0.2 3.1 0.2 6.8 0 3.7-0.1 6.8-0.2 6.8-0.2 0-0.3-3.1-0.3-6.8 0-3.7 0.1-6.8 0.3-6.8z"/>
						</g>
					</g>
					<g id="&lt;Group&gt;">
						<g id="&lt;Group&gt;">
							<path id="&lt;Path&gt;" class="s5" d="m213.4 265.6c0 0.1-1 0.1-2.5-0.3-1.4-0.4-3.4-1.3-5-3.1-1.5-1.7-2.3-3.8-2.5-5.3-0.2-1.5-0.1-2.4 0-2.4 0.1 0 0 0.9 0.4 2.3 0.3 1.5 1 3.4 2.5 5.1 1.5 1.6 3.4 2.6 4.7 3.1 1.4 0.4 2.4 0.5 2.4 0.6z"/>
						</g>
					</g>
				</g>
				<g id="&lt;Group&gt;">
					<g id="&lt;Group&gt;">
						<path id="&lt;Path&gt;" class="s5" d="m160.7 442.7c0 0-0.4 0-1.1 0-0.7 0-1.8-0.1-3.1-0.3-2.6-0.3-6.2-0.8-10.1-1.5-3.9-0.8-7.4-1.7-9.9-2.5-1.2-0.3-2.2-0.7-2.9-0.9-0.7-0.2-1.1-0.4-1.1-0.4 0.1-0.1 0.4 0 1.2 0.2q1.2 0.3 2.9 0.8c2.6 0.6 6.1 1.5 9.9 2.2 3.9 0.8 7.5 1.4 10.1 1.8q1.8 0.2 3 0.4c0.7 0.1 1.1 0.2 1.1 0.2z"/>
					</g>
				</g>
				<g id="&lt;Group&gt;">
					<g id="&lt;Group&gt;">
						<path id="&lt;Path&gt;" class="s5" d="m235 440.5c0 0-1.5 0.1-3.9 0.2-2.4 0.1-5.7 0.3-9.3 0.8-3.7 0.5-6.9 1.2-9.3 1.7-2.3 0.6-3.8 1-3.8 0.9 0 0 0.4-0.2 1-0.4 0.6-0.2 1.6-0.5 2.7-0.8 2.4-0.6 5.6-1.4 9.3-1.9 3.6-0.5 7-0.7 9.4-0.7 1.2 0 2.2 0 2.8 0.1 0.7 0 1.1 0 1.1 0.1z"/>
					</g>
				</g>
			</g>
			<g id="&lt;Group&gt;">
				<path id="&lt;Path&gt;" class="s5" d="m152.6 244.8c0 0 49.2-70.1 39.2-85.2h4.1c0 0 3.5 4.4 0 17.5-3.3 12.2-40.7 76.2-40.7 76.2z"/>
			</g>
			<g id="&lt;Group&gt;">
				<g id="&lt;Group&gt;">
					<g id="&lt;Group&gt;">
						<path id="&lt;Path&gt;" class="s5" d="m195.9 164.6l-10.6-3.4-8.2 1.4-0.3 3.1 1 5.8 7.5-0.3 10.6-3.7v-2.1"/>
					</g>
					<g id="&lt;Group&gt;">
						<path id="&lt;Path&gt;" class="s3" d="m176.5 164.8l120 1.5v2.8l-120-1.4z"/>
					</g>
				</g>
				<g id="&lt;Group&gt;">
					<g id="&lt;Group&gt;">
						<path id="&lt;Path&gt;" class="s3" d="m237.6 296.3q0 0.1-0.4-0.6-0.3-0.6-1-1.8c-0.8-1.6-2.1-4-3.8-7.1-3.3-6.2-8-15.2-13.9-26.2-11.7-22.2-27.9-53-46-87.1v-0.1-0.2c0.6-1.4 1.1-2.9 1.7-4.4 14.2-37.1 27.1-70.7 36.4-95 4.7-12.2 8.5-22 11.1-28.8 1.3-3.4 2.4-6 3.1-7.8q0.5-1.3 0.8-2 0.2-0.7 0.2-0.7 0.1 0-0.2 0.7-0.3 0.7-0.7 2c-0.7 1.8-1.7 4.5-3 7.9-2.6 6.8-6.3 16.6-10.9 28.8-9.3 24.3-22.1 57.9-36.3 95-0.6 1.6-1.1 3.1-1.7 4.5v-0.2c18 34.2 34.2 65 45.8 87.2 5.9 11.1 10.6 20.1 13.8 26.3 1.6 3.1 2.9 5.5 3.7 7.1q0.6 1.3 1 1.9 0.3 0.6 0.3 0.6z"/>
					</g>
				</g>
				<g id="&lt;Group&gt;">
					<g id="&lt;Group&gt;">
						<g id="&lt;Group&gt;">
							<path id="&lt;Path&gt;" class="s6" d="m163.5 162.6h7.8l6.5 2.9c0.9 0.4 1.6 1.2 1.9 2.1l2.3 6.4c0.7 1.9-0.3 3.9-2.3 4.6l-6.1-3.6c-0.6 0.7-8.5 1.9-8.5 1.9z"/>
						</g>
						<g id="&lt;Group&gt;">
							<path id="&lt;Path&gt;" class="s6" d="m164.2 162.6c0 0 9.4-2.3 9.7-2.4 0.1 0 0.9-1 1.8-1.9 0.8-0.9 1.6-0.1 1.2 1.1 0 0 0.1 0.8 0.1 0.8-0.5 1.4-2.3 3.9-2.3 3.9z"/>
						</g>
					</g>
					<g id="&lt;Group&gt;">
						<g id="&lt;Group&gt;">
							<path id="&lt;Path&gt;" class="s7" d="m163.5 162.6c0-0.1 1.2-0.4 3-0.8q1.5-0.4 3.3-0.9c1.2-0.3 2.6-0.6 3.9-1.2q0.2-0.1 0.4-0.2c0.1-0.1 0.2-0.2 0.4-0.4q0.3-0.3 0.7-0.7l0.4-0.4 0.2-0.2q0.1-0.1 0.2-0.1c0.5-0.2 1 0 1.2 0.3 0.1 0.2 0.1 0.5 0.1 0.6q0 0.3-0.1 0.5 0 0.5-0.2 0.9-0.2 0.8-0.5 1.5c-0.4 0.9-0.9 1.5-1.2 1.9-0.4 0.5-0.6 0.6-0.6 0.6-0.1 0 0.8-0.9 1.5-2.7q0.2-0.6 0.4-1.4 0.1-0.4 0.2-0.9 0-0.2 0-0.4 0.1-0.2 0-0.3c-0.1-0.2-0.4-0.3-0.6-0.2-0.1 0.1-0.1 0.1-0.3 0.3l-0.3 0.3q-0.4 0.4-0.8 0.8c-0.1 0.1-0.2 0.3-0.4 0.4q-0.2 0.2-0.5 0.3c-1.4 0.6-2.8 0.9-4 1.2q-1.9 0.4-3.3 0.7c-1.9 0.4-3 0.6-3.1 0.5z"/>
						</g>
					</g>
					<g id="&lt;Group&gt;">
						<g id="&lt;Group&gt;">
							<path id="&lt;Path&gt;" class="s7" d="m180.8 171.5c0 0.1-0.4-0.6-0.7-1.7-0.4-1-0.7-2.6-1.9-3.7-1.3-1.1-2.8-1.5-3.8-2.1-1-0.5-1.5-1-1.5-1 0.1-0.1 0.6 0.3 1.7 0.7 0.5 0.2 1.1 0.4 1.8 0.7 0.7 0.3 1.4 0.7 2.1 1.3 1.4 1.3 1.7 3 1.9 4.1 0.3 1 0.5 1.7 0.4 1.7z"/>
						</g>
					</g>
					<g id="&lt;Group&gt;">
						<g id="&lt;Group&gt;">
							<path id="&lt;Path&gt;" class="s7" d="m182.1 175.7c-0.1 0-0.2-0.6-0.5-1.7-0.3-1-0.9-2.4-1.9-3.7-0.9-1.3-2.1-2.2-3-2.7-0.9-0.6-1.6-0.9-1.5-0.9 0-0.1 0.7 0 1.7 0.5 1 0.5 2.2 1.5 3.3 2.8 1 1.4 1.6 2.9 1.8 3.9 0.2 1.1 0.1 1.8 0.1 1.8z"/>
						</g>
					</g>
					<g id="&lt;Group&gt;">
						<g id="&lt;Group&gt;">
							<path id="&lt;Path&gt;" class="s7" d="m180.6 178.4c-0.2 0.1-0.4-2.3-2.2-4.3-1.8-2-4-2.7-3.9-2.9 0-0.1 0.6 0.1 1.4 0.5 0.8 0.3 1.9 1 2.9 2.1 0.9 1 1.5 2.3 1.7 3.1 0.2 0.9 0.2 1.5 0.1 1.5z"/>
						</g>
					</g>
				</g>
				<g id="&lt;Group&gt;">
					<g id="&lt;Group&gt;">
						<path id="&lt;Path&gt;" class="s5" d="m224.9 29.5c-1.2 0-2 1-1.9 2.1 0.7 5.5 3.7 20.6 14.6 27 13.4 7.9 44.8 38.2 49.6 70 5.1 33.7 5.2 44.2 5.2 44.2 0 0 6.8 66.9-28 97.6-23.7 21-30.1 23.9-28.4 40.3h1.6c0 0-1.6-12 14-24.5 15.6-12.5 26.4-23.8 34.4-37.7 0 0 9.6-16.7 11-39.9 0.9-13.3 4.8-28 8.9-33.2l3.5-3.9c0 0-11-10.3-12.9-18.6-1.7-7.2-5.7-33.2-8.1-40.4-4.4-12.8-10.1-19.4-16.7-29.1-4.2-6.1-21.7-22.2-32.2-28.8-10.5-6.7-14.6-20.4-14.6-25.1z"/>
					</g>
					<g id="&lt;Group&gt;">
						<g id="&lt;Group&gt;">
							<path id="&lt;Path&gt;" class="s3" d="m303.3 169.3q0 0-0.3 0.3c-0.2 0.3-0.5 0.6-0.8 1-0.7 0.8-1.6 2.1-2.6 3.9-1.1 1.8-2 4.2-2.9 7-0.8 2.8-1.4 6.1-1.7 9.8-0.3 3.6-0.3 7.7-0.3 12 0 2.2-0.1 4.5-0.2 6.8 0 1.1-0.1 2.3-0.2 3.5-0.1 1.2-0.2 2.4-0.4 3.6-1.2 9.7-4.2 20.2-9.4 30.3-5.2 10.1-11.9 18.7-19.1 25.3-0.9 0.9-1.9 1.6-2.7 2.4q-1.4 1.2-2.8 2.3c-1.8 1.4-3.6 2.7-5.3 4-3.5 2.7-6.7 5.2-9.2 7.8-2.6 2.6-4.6 5.4-5.9 8-1.3 2.6-2 5-2.3 7.1-0.3 2-0.3 3.6-0.1 4.7 0 0.5 0.1 1 0.1 1.2q0.1 0.4 0.1 0.4c0 0-0.2-0.5-0.3-1.6-0.2-1.1-0.3-2.7 0-4.7 0.2-2.1 1-4.6 2.3-7.2 1.3-2.7 3.2-5.5 5.8-8.1 2.6-2.7 5.8-5.3 9.2-7.9 1.7-1.3 3.5-2.7 5.4-4.1q1.3-1.1 2.6-2.3c0.9-0.7 1.9-1.5 2.8-2.3 7.1-6.7 13.8-15.2 19-25.2 5.1-10.1 8.1-20.5 9.3-30.2 0.2-1.2 0.3-2.4 0.4-3.5 0.1-1.2 0.2-2.4 0.3-3.6 0.1-2.3 0.1-4.5 0.2-6.7 0-4.3 0-8.4 0.4-12.1 0.3-3.7 0.9-7 1.8-9.8 0.8-2.8 1.8-5.2 2.9-7 1-1.8 2-3.1 2.7-3.9 0.4-0.4 0.7-0.7 0.8-0.9q0.3-0.3 0.3-0.3z"/>
						</g>
					</g>
					<g id="&lt;Group&gt;">
						<g id="&lt;Group&gt;">
							<path id="&lt;Path&gt;" class="s3" d="m224.2 30.3q0 0 0.1 0.4 0 0.5 0.1 1.3c0.1 1.1 0.3 2.7 0.8 4.7 0.5 2 1.4 4.5 2.7 7.1 1.4 2.7 3.2 5.6 6 8.1 2.7 2.6 5.9 5.2 9.4 7.9 3.5 2.7 7.3 5.4 11.1 8.5 3.9 3.2 7.7 6.8 11.4 10.7 3.6 4 7.1 8.5 10.2 13.3 3.1 4.8 5.8 9.8 8 14.7 2.2 5 3.9 9.9 5.2 14.7 1.3 4.8 2.2 9.5 2.8 13.8 0.6 4.4 0.8 8.5 1.3 12.2 0.4 3.8 1.1 7.1 2 9.9 0.9 2.8 2 5.2 3.1 6.9 1.1 1.8 2.2 3.1 2.9 3.9 0.4 0.4 0.7 0.7 0.9 0.9q0.3 0.3 0.3 0.3c0 0-0.5-0.4-1.2-1.1-0.8-0.8-1.9-2.1-3-3.8-1.2-1.8-2.3-4.1-3.3-7-0.9-2.8-1.6-6.2-2.1-9.9-0.5-3.7-0.8-7.8-1.3-12.2-0.6-4.4-1.5-9-2.8-13.8-1.4-4.7-3.1-9.7-5.3-14.6-2.2-4.9-4.8-9.8-7.9-14.6-3.2-4.8-6.6-9.2-10.2-13.2-3.6-4-7.4-7.5-11.3-10.7-3.8-3.1-7.6-5.9-11.1-8.6-3.5-2.7-6.7-5.3-9.4-7.9-2.7-2.6-4.6-5.6-5.9-8.2-1.4-2.7-2.2-5.2-2.7-7.2-0.5-2.1-0.7-3.7-0.7-4.8q-0.1-0.8-0.1-1.3 0-0.4 0-0.4z"/>
						</g>
					</g>
				</g>
			</g>
		</g>
	</g>
</svg>